<svg width="148" height="32" viewBox="0 0 148 32" fill="none" xmlns="http://www.w3.org/2000/svg">
<path d="M20.1955 2.20632C19.3357 1.23437 18.064 0.748416 16.3803 0.748457C15.4479 0.736517 14.5268 0.953683 13.6979 1.38089C13.2093 1.63414 12.7657 1.96624 12.3851 2.36382C12.3222 2.42884 12.2464 2.48001 12.1626 2.51404C12.0788 2.54808 11.9887 2.56422 11.8983 2.56145C11.8079 2.55867 11.719 2.53704 11.6374 2.49793C11.5558 2.45882 11.4833 2.4031 11.4245 2.33434C11.1401 1.99749 10.8067 1.70526 10.4355 1.4674C9.57654 0.957009 8.58777 0.707232 7.58946 0.748457C6.63708 0.734588 5.69633 0.958823 4.85261 1.4008C4.24935 1.71801 3.71379 2.1499 3.27598 2.67226V2.65876L2.99658 1.56908C2.96 1.43212 2.87894 1.31119 2.76615 1.22531C2.65335 1.13943 2.51522 1.09346 2.37346 1.09464H0.642357C0.474109 1.09255 0.311919 1.15737 0.191458 1.27485C0.0709973 1.39233 0.00212912 1.55284 0 1.72109V14.8471C0.00212918 15.0153 0.0709953 15.1758 0.191454 15.2933C0.311914 15.4108 0.474103 15.4757 0.642357 15.4736H3.09814C3.26639 15.4757 3.42857 15.4108 3.54902 15.2933C3.66947 15.1758 3.73832 15.0153 3.74043 14.8471V6.76615C3.70901 6.02877 3.96047 5.30724 4.4434 4.74911C4.67823 4.49106 4.96674 4.2876 5.28865 4.15303C5.61056 4.01847 5.95804 3.95607 6.30665 3.97023C6.66305 3.9519 7.01902 4.01352 7.34852 4.15058C7.67801 4.28764 7.97267 4.49668 8.21091 4.76237C8.70405 5.39215 8.94927 6.18083 8.90019 6.9792V14.8471C8.9023 15.0153 8.97116 15.1758 9.09161 15.2933C9.21206 15.4108 9.37424 15.4757 9.54249 15.4736H11.9708C12.139 15.4757 12.3012 15.4108 12.4216 15.2933C12.5421 15.1758 12.6109 15.0153 12.6131 14.8471V6.76615C12.6028 6.26164 12.7127 5.76192 12.9337 5.30828C13.1333 4.90242 13.4432 4.56099 13.8278 4.32308C14.2362 4.08087 14.7046 3.95858 15.1792 3.97023C15.5356 3.9519 15.8917 4.01354 16.2212 4.15064C16.5507 4.28773 16.8454 4.49681 17.0836 4.76256C17.5767 5.39234 17.822 6.18101 17.7729 6.97939V14.8471C17.775 15.0153 17.8439 15.1758 17.9643 15.2933C18.0848 15.4108 18.2469 15.4756 18.4152 15.4736H20.8436C21.0118 15.4756 21.174 15.4108 21.2944 15.2933C21.4149 15.1758 21.4837 15.0153 21.4859 14.8471V6.02075C21.5492 4.63247 21.0886 3.27107 20.1955 2.20632Z" fill="#ED2024"/>
<path d="M35.4773 1.09463C35.3091 1.09255 35.1469 1.15738 35.0265 1.27486C34.906 1.39233 34.8372 1.55284 34.835 1.72107V8.39056C34.8591 9.11974 34.7552 9.8475 34.528 10.5408C34.3717 11.0116 34.1022 11.4368 33.743 11.779C33.4503 12.0444 33.0999 12.2381 32.7194 12.3448C32.3861 12.4382 32.0419 12.4874 31.6958 12.4912C31.0425 12.5325 30.3947 12.3493 29.8598 11.972C29.4349 11.6361 29.1113 11.1891 28.9248 10.6806C28.7382 10.1869 28.6233 9.6691 28.5835 9.14286C28.547 8.63253 28.5288 8.21321 28.5289 7.88491V1.72107C28.5268 1.55284 28.4579 1.39233 28.3374 1.27486C28.217 1.15738 28.0548 1.09255 27.8866 1.09463H25.4035C25.2353 1.09255 25.0731 1.15738 24.9526 1.27486C24.8322 1.39233 24.7633 1.55284 24.7612 1.72107V9.16278C24.7612 9.40241 24.7794 9.78409 24.8159 10.3078C24.8636 10.8958 24.9687 11.4777 25.1298 12.0452C25.3122 12.7004 25.6054 13.3196 25.9965 13.876C26.4358 14.4915 27.0194 14.9898 27.6961 15.3272C28.5784 15.7419 29.5475 15.9382 30.5217 15.8996C31.7843 15.9483 33.0339 15.6291 34.1185 14.9808C34.5531 14.7023 34.9499 14.3689 35.2993 13.9889V13.9932L35.5629 15.002C35.5999 15.1383 35.6811 15.2585 35.7937 15.3439C35.9063 15.4292 36.044 15.4749 36.1852 15.4738H37.933C38.1012 15.4758 38.2634 15.411 38.3839 15.2935C38.5043 15.176 38.5732 15.0155 38.5753 14.8472V1.72107C38.5732 1.55284 38.5043 1.39233 38.3839 1.27486C38.2634 1.15738 38.1012 1.09255 37.933 1.09463H35.4773Z" fill="#ED2024"/>
<path d="M48.1572 15.8729C46.5654 15.9483 44.9907 15.5172 43.6594 14.6414C42.7059 13.9633 42.0214 12.9712 41.726 11.8391C41.7037 11.7531 41.6999 11.6633 41.7149 11.5757C41.73 11.4882 41.7635 11.4048 41.8132 11.3311C41.8629 11.2575 41.9278 11.1953 42.0034 11.1486C42.079 11.102 42.1637 11.0719 42.2518 11.0605L44.8271 10.681C44.9709 10.6601 45.1175 10.6878 45.2437 10.7598C45.37 10.8318 45.4685 10.944 45.5236 11.0784C45.7054 11.5235 46.0105 11.9074 46.403 12.185C47.0009 12.586 47.7108 12.7865 48.4302 12.7575C48.9753 12.7908 49.5177 12.6585 49.9862 12.378C50.1603 12.2632 50.302 12.1055 50.3976 11.9202C50.4932 11.7348 50.5396 11.528 50.5323 11.3196C50.5442 11.0722 50.4667 10.8288 50.3139 10.6339C50.035 10.3863 49.7 10.2104 49.3379 10.1213C48.8329 9.95275 48.048 9.73086 46.9832 9.45564C45.9882 9.22773 45.022 8.88832 44.1031 8.44385C43.472 8.14803 42.9339 7.68531 42.5469 7.10573C42.2147 6.53474 42.0492 5.8821 42.0691 5.22183C42.0491 4.36429 42.3025 3.52262 42.7927 2.81871C43.3102 2.11213 44.0179 1.56726 44.8333 1.24763C45.8215 0.859055 46.8772 0.67123 47.9387 0.695114C48.9858 0.676314 50.0273 0.852398 51.01 1.21439C51.8427 1.5199 52.5862 2.02777 53.1737 2.69224C53.5715 3.15196 53.867 3.69112 54.0403 4.27386C54.0653 4.35931 54.0719 4.44909 54.0596 4.53726C54.0472 4.62543 54.0163 4.70996 53.9688 4.78526C53.9213 4.86055 53.8583 4.92489 53.784 4.97399C53.7098 5.0231 53.6259 5.05585 53.538 5.07007L50.9871 5.51751C50.8418 5.5445 50.6917 5.52053 50.562 5.44964C50.4324 5.37875 50.3312 5.26528 50.2755 5.12841C50.1557 4.82069 49.9513 4.55309 49.686 4.35643C49.1951 4.01786 48.6168 3.82831 48.0207 3.81058C47.4583 3.74533 46.8889 3.83751 46.3758 4.07685C46.1902 4.15881 46.0326 4.29319 45.9222 4.46348C45.8119 4.63377 45.7537 4.83257 45.7547 5.03548C45.7523 5.15267 45.7747 5.26904 45.8206 5.37691C45.8665 5.48477 45.9348 5.58166 46.0209 5.66118C46.3513 5.90581 46.7271 6.08226 47.1264 6.18027C47.686 6.35787 48.5392 6.58864 49.6858 6.87258C50.6226 7.08833 51.5284 7.42159 52.3817 7.86445C52.9885 8.17577 53.5001 8.64488 53.8627 9.22242C54.1861 9.80609 54.3464 10.466 54.3269 11.133C54.3542 11.8013 54.2195 12.4664 53.9343 13.0714C53.649 13.6765 53.2218 14.2036 52.6888 14.6079C51.3609 15.5216 49.7664 15.9667 48.1572 15.8729Z" fill="#ED2024"/>
<path d="M57.3479 1.58872C57.3659 1.47246 57.4154 1.36236 57.4917 1.26874C57.568 1.17513 57.6687 1.10108 57.7843 1.05355C57.8998 1.00601 58.0265 0.986556 58.1524 0.997001C58.2782 1.00745 58.3992 1.04745 58.5039 1.11326L60.738 2.3687C60.8314 2.41413 60.9096 2.48246 60.9642 2.56629C61.0188 2.65011 61.0477 2.74623 61.0477 2.84422C61.0477 2.94221 61.0188 3.03833 60.9642 3.12215C60.9096 3.20598 60.8314 3.27431 60.738 3.31974L58.5038 4.57518C58.3991 4.64097 58.2781 4.68096 58.1522 4.69138C58.0263 4.7018 57.8997 4.68231 57.7841 4.63474C57.6685 4.58717 57.5678 4.51308 57.4915 4.41944C57.4152 4.32579 57.3658 4.21565 57.3478 4.09937L57.3479 1.58872Z" fill="#ED2024"/>
<path d="M57.1929 15.4363V6.13881C57.1951 6.01963 57.2678 5.90594 57.3949 5.82273C57.522 5.73951 57.6931 5.6936 57.8706 5.69508H60.4326C60.6101 5.6936 60.7812 5.73951 60.9083 5.82273C61.0354 5.90594 61.108 6.01963 61.1102 6.13881V15.4363C61.108 15.5554 61.0354 15.6691 60.9083 15.7524C60.7812 15.8356 60.6101 15.8815 60.4326 15.88H57.8706C57.6931 15.8815 57.5219 15.8356 57.3949 15.7524C57.2678 15.6691 57.1951 15.5554 57.1929 15.4363Z" fill="#ED2024"/>
<path d="M71.9082 15.8729C70.5305 15.9121 69.1691 15.5663 67.977 14.8744C66.8998 14.2248 66.0289 13.283 65.4654 12.1584C64.8695 10.955 64.5699 9.62665 64.5918 8.28401C64.568 6.92875 64.8799 5.58865 65.4996 4.38313C66.0833 3.26069 66.97 2.32434 68.059 1.68032C69.2458 1.00126 70.596 0.660513 71.9629 0.695112C73.5215 0.641301 75.0558 1.09189 76.3378 1.97989C77.3256 2.68701 78.0577 3.69522 78.4243 4.85344C78.4501 4.93508 78.4587 5.02113 78.4499 5.10625C78.441 5.19138 78.4147 5.27377 78.3726 5.34832C78.3306 5.42287 78.2737 5.48799 78.2054 5.53965C78.1372 5.5913 78.059 5.62838 77.9759 5.6486L75.4543 6.29965C75.3055 6.33819 75.1479 6.3228 75.0094 6.2562C74.8709 6.1896 74.7605 6.0761 74.6977 5.93583C74.4888 5.45109 74.1608 5.02697 73.7442 4.70286C73.221 4.29194 72.5735 4.07126 71.9082 4.07709C71.2238 4.04806 70.5484 4.24194 69.9836 4.6296C69.4739 5.0103 69.089 5.53406 68.878 6.13421C68.632 6.82392 68.5117 7.55219 68.523 8.28438C68.4729 9.36381 68.7721 10.4306 69.3762 11.3266C69.6687 11.7153 70.0532 12.0252 70.4952 12.2286C70.9372 12.4319 71.4227 12.5223 71.9082 12.4915C72.5916 12.5393 73.2694 12.3409 73.8193 11.9324C74.1693 11.6238 74.4446 11.2397 74.6245 10.8091C74.6852 10.6757 74.7896 10.5669 74.9205 10.5008C75.0513 10.4347 75.2008 10.4151 75.3443 10.4453L77.9019 10.9658C77.9909 10.9823 78.0754 11.0181 78.1492 11.0705C78.2231 11.1229 78.2847 11.1908 78.3298 11.2694C78.3748 11.348 78.4022 11.4355 78.41 11.5257C78.4179 11.616 78.406 11.7069 78.3752 11.7921C77.9639 12.9371 77.2125 13.9291 76.2218 14.6352C74.9504 15.4923 73.4406 15.9255 71.9082 15.8729Z" fill="#ED2024"/>
<path d="M88.6432 1.06133C88.2042 1.09123 87.7696 1.16711 87.3464 1.2877C86.9394 1.40261 86.5493 1.57054 86.1862 1.78718C85.7325 2.04453 85.3337 2.38829 85.0123 2.79903C84.8614 2.99313 84.7245 3.19776 84.6028 3.41135V3.40852L84.3042 1.62025C84.2777 1.47182 84.1995 1.33757 84.0834 1.24133C83.9674 1.14508 83.821 1.09306 83.6702 1.0945H81.969C81.8008 1.09241 81.6386 1.15724 81.5181 1.27472C81.3977 1.3922 81.3288 1.55271 81.3267 1.72095V14.8471C81.3288 15.0153 81.3977 15.1758 81.5181 15.2933C81.6386 15.4108 81.8008 15.4756 81.969 15.4736H84.4246C84.5929 15.4756 84.755 15.4108 84.8755 15.2933C84.9959 15.1758 85.0648 15.0153 85.0669 14.8471V8.12429C85.0595 7.61988 85.138 7.1179 85.2989 6.63979C85.4449 6.21511 85.6773 5.82526 85.9814 5.4948C86.2932 5.16277 86.6695 4.89777 87.0872 4.71598C87.5499 4.50526 88.0473 4.38118 88.5548 4.34988C88.7998 4.33065 89.0459 4.33044 89.291 4.34927C89.378 4.35706 89.4658 4.34676 89.5487 4.31901C89.6316 4.29126 89.7078 4.24667 89.7727 4.18802C89.8375 4.12938 89.8895 4.05796 89.9254 3.97825C89.9613 3.89854 89.9803 3.81227 89.9812 3.72485V1.67433C89.9789 1.50899 89.9122 1.35106 89.7954 1.23405C89.6785 1.11705 89.5207 1.05016 89.3553 1.04758C89.1179 1.04022 88.8802 1.04481 88.6432 1.06133Z" fill="#ED2024"/>
<path d="M98.9354 15.8729C97.5707 15.9029 96.2228 15.5673 95.0315 14.901C93.9268 14.2683 93.0213 13.339 92.4174 12.2183C91.7769 11.0075 91.4551 9.6536 91.4824 8.2841C91.4531 6.90343 91.7823 5.53875 92.4379 4.32328C93.0515 3.20639 93.9636 2.28215 95.0723 1.65384C96.271 1.022 97.6059 0.692897 98.9609 0.695207C100.316 0.697518 101.65 1.03117 102.846 1.66709C103.955 2.29944 104.865 3.22856 105.474 4.34992C106.094 5.57118 106.417 6.92183 106.416 8.29161C106.415 9.66139 106.09 11.0115 105.467 12.2317C104.855 13.3515 103.943 14.2783 102.833 14.9079C101.642 15.5683 100.297 15.9013 98.9354 15.8729ZM98.9354 12.4912C99.4426 12.5274 99.9509 12.439 100.416 12.2336C100.881 12.0282 101.289 11.7121 101.604 11.3129C102.222 10.4271 102.531 9.36287 102.484 8.28404C102.541 7.19163 102.226 6.11231 101.59 5.22186C101.271 4.83366 100.863 4.52729 100.401 4.32816C99.9396 4.12903 99.437 4.04288 98.9353 4.07687C98.2323 4.04737 97.537 4.23316 96.9424 4.6094C96.4168 4.97343 96.0146 5.48893 95.7893 6.08725C95.5263 6.78918 95.3989 7.53463 95.4138 8.28404C95.3555 9.37877 95.6707 10.4608 96.308 11.3529C96.6243 11.7374 97.0275 12.0412 97.4843 12.2391C97.9411 12.437 98.4385 12.5235 98.9354 12.4912Z" fill="#ED2024"/>
<path d="M116.053 15.873C114.688 15.903 113.34 15.5674 112.149 14.9011C111.044 14.2683 110.138 13.339 109.535 12.2183C108.894 11.0075 108.572 9.65365 108.6 8.28417C108.57 6.90346 108.9 5.53875 109.555 4.32328C110.169 3.20639 111.081 2.28215 112.19 1.65384C113.388 1.022 114.723 0.692897 116.078 0.695207C117.433 0.697518 118.767 1.03117 119.964 1.6671C121.072 2.29944 121.982 3.22856 122.591 4.34992C123.212 5.57118 123.534 6.92183 123.533 8.29161C123.532 9.66139 123.207 11.0115 122.584 12.2317C121.972 13.3515 121.06 14.2783 119.95 14.9079C118.759 15.5684 117.414 15.9014 116.053 15.873ZM116.053 12.4913C116.56 12.5275 117.068 12.439 117.533 12.2336C117.998 12.0283 118.406 11.7122 118.721 11.313C119.339 10.4271 119.648 9.36293 119.602 8.28411C119.658 7.19169 119.343 6.11239 118.708 5.22192C118.388 4.83372 117.98 4.52734 117.519 4.32821C117.057 4.12908 116.554 4.04294 116.052 4.07694C115.349 4.04744 114.654 4.23323 114.06 4.60947C113.534 4.97345 113.132 5.48895 112.906 6.08732C112.643 6.78924 112.516 7.53469 112.531 8.28411C112.472 9.37883 112.788 10.4609 113.425 11.353C113.741 11.7375 114.144 12.0413 114.601 12.2392C115.058 12.4372 115.556 12.5236 116.053 12.4913Z" fill="#ED2024"/>
<path d="M146.704 2.20632C145.844 1.23437 144.573 0.748414 142.889 0.748455C141.957 0.73649 141.036 0.953657 140.207 1.38088C139.718 1.63413 139.274 1.96623 138.894 2.36381C138.831 2.42884 138.755 2.48001 138.671 2.51404C138.587 2.54808 138.497 2.56422 138.407 2.56145C138.316 2.55867 138.228 2.53704 138.146 2.49793C138.064 2.45882 137.992 2.4031 137.933 2.33434C137.649 1.99748 137.315 1.70524 136.944 1.4674C136.085 0.957018 135.096 0.707242 134.098 0.748455C133.146 0.734586 132.205 0.95882 131.361 1.4008C130.776 1.70842 130.255 2.12363 129.824 2.62465V2.6236L129.526 1.5562C129.487 1.42224 129.405 1.30466 129.293 1.22134C129.181 1.13803 129.045 1.09353 128.906 1.09464H127.151C126.983 1.09257 126.82 1.15739 126.7 1.27487C126.579 1.39235 126.511 1.55285 126.508 1.72109V14.8471C126.511 15.0153 126.579 15.1758 126.7 15.2933C126.82 15.4108 126.983 15.4756 127.151 15.4736H129.606C129.775 15.4756 129.937 15.4108 130.057 15.2933C130.178 15.1758 130.247 15.0153 130.249 14.8471V6.76615C130.217 6.02877 130.469 5.30726 130.952 4.74911C131.199 4.50108 131.493 4.30453 131.817 4.17083C132.141 4.03713 132.488 3.96893 132.838 3.97016C133.189 3.97139 133.535 4.04204 133.858 4.17801C134.181 4.31399 134.474 4.5126 134.719 4.76237C135.213 5.39213 135.458 6.18082 135.409 6.9792V14.8471C135.411 15.0153 135.48 15.1758 135.6 15.2933C135.721 15.4108 135.883 15.4756 136.051 15.4736H138.479C138.648 15.4756 138.81 15.4108 138.93 15.2933C139.051 15.1758 139.119 15.0153 139.122 14.8471V6.76615C139.111 6.26163 139.221 5.76191 139.442 5.30828C139.642 4.9024 139.952 4.56096 140.336 4.32307C140.745 4.08089 141.213 3.95861 141.688 3.97023C142.044 3.95189 142.4 4.01351 142.73 4.15058C143.059 4.28764 143.354 4.49668 143.592 4.76237C144.085 5.39215 144.33 6.18083 144.281 6.9792V14.8471C144.283 15.0153 144.352 15.1758 144.473 15.2933C144.593 15.4108 144.755 15.4756 144.924 15.4736H147.352C147.52 15.4756 147.682 15.4108 147.803 15.2933C147.923 15.1758 147.992 15.0153 147.994 14.8471V6.02075C148.058 4.63253 147.597 3.27115 146.704 2.20632Z" fill="#ED2024"/>
<path d="M2.91627 31.3069C2.35445 31.3268 1.79602 31.2121 1.2875 30.9724C0.898433 30.7861 0.570686 30.4925 0.342862 30.1262C0.115038 29.76 -0.00337706 29.3362 0.00156214 28.9049C-0.0148225 28.4822 0.098001 28.0646 0.324996 27.7077C0.540003 27.3915 0.830689 27.1341 1.17059 26.9589C1.52409 26.7746 1.902 26.6415 2.29297 26.5636C2.7813 26.4674 3.30474 26.3826 3.86332 26.309C4.42189 26.2354 4.93756 26.1733 5.41034 26.1227C5.88307 26.0722 6.23641 26.0317 6.47037 26.0011L6.38619 26.0559C6.3721 26.0652 6.35575 26.0707 6.33885 26.0716C6.32195 26.0725 6.30512 26.0689 6.29009 26.0611C6.27507 26.0533 6.2624 26.0416 6.25341 26.0273C6.24442 26.013 6.23944 25.9965 6.23897 25.9796C6.29101 25.2737 6.09891 24.5715 5.69486 23.9904C5.4283 23.7271 5.10631 23.5267 4.75238 23.4037C4.39845 23.2807 4.02153 23.2383 3.64913 23.2796C3.04729 23.2501 2.45145 23.411 1.94628 23.7395C1.51293 24.0681 1.20427 24.5344 1.07101 25.0618C1.06391 25.0853 1.04799 25.1052 1.02658 25.1173C1.00516 25.1293 0.979902 25.1327 0.956089 25.1265L0.420274 24.9906C0.40834 24.9878 0.397092 24.9826 0.387184 24.9753C0.377276 24.9681 0.368904 24.9589 0.362557 24.9484C0.35621 24.9379 0.352013 24.9263 0.350211 24.9142C0.348409 24.902 0.349037 24.8896 0.352059 24.8777C0.513071 24.2102 0.913954 23.6253 1.47837 23.2342C2.13484 22.8172 2.9029 22.6104 3.67999 22.6413C4.35945 22.6168 5.03284 22.777 5.62839 23.105C6.12099 23.3821 6.4973 23.8273 6.68843 24.3592C6.76895 24.5981 6.82127 24.8455 6.84431 25.0966C6.87501 25.3768 6.89063 25.6584 6.89108 25.9403V30.9864C6.89093 30.9987 6.88836 31.0108 6.88352 31.0221C6.87867 31.0334 6.87165 31.0437 6.86285 31.0522C6.85404 31.0608 6.84364 31.0676 6.83222 31.0722C6.8208 31.0767 6.80859 31.079 6.7963 31.0788H6.37796C6.36567 31.079 6.35346 31.0767 6.34204 31.0722C6.33062 31.0676 6.32022 31.0608 6.31141 31.0522C6.30261 31.0437 6.29558 31.0334 6.29074 31.0221C6.2859 31.0108 6.28333 30.9987 6.28318 30.9864V28.9263C6.28332 28.9135 6.28606 28.901 6.29122 28.8893C6.29638 28.8777 6.30386 28.8673 6.31319 28.8586C6.32253 28.85 6.33354 28.8434 6.34553 28.8391C6.35752 28.8349 6.37026 28.8331 6.38295 28.834L6.47455 28.8384C6.48874 28.8388 6.50265 28.8425 6.5152 28.8491C6.52775 28.8557 6.53861 28.8651 6.54695 28.8766C6.55529 28.8881 6.56088 28.9014 6.56329 28.9153C6.5657 28.9293 6.56486 28.9437 6.56085 28.9573C6.34449 29.6616 5.88415 30.2656 5.2625 30.661C4.56082 31.1021 3.74481 31.3267 2.91627 31.3069ZM2.8851 30.6683C3.43829 30.6794 3.98732 30.5705 4.49441 30.3491C4.94634 30.1469 5.33636 29.8282 5.62447 29.4255C5.92343 28.9951 6.11211 28.4979 6.17394 27.9775C6.21673 27.6754 6.23757 27.3705 6.23629 27.0653V26.554C6.23669 26.5365 6.24195 26.5194 6.25147 26.5047C6.26099 26.4899 6.2744 26.4781 6.29022 26.4706C6.30604 26.463 6.32365 26.4599 6.3411 26.4618C6.35855 26.4636 6.37515 26.4702 6.38906 26.4809C6.40408 26.4921 6.4153 26.5077 6.4212 26.5255C6.42711 26.5433 6.42742 26.5625 6.4221 26.5805C6.41677 26.5985 6.40607 26.6144 6.39142 26.6261C6.37678 26.6379 6.35889 26.6448 6.34017 26.6461C6.09637 26.6682 5.79546 26.6952 5.43746 26.7271C4.95159 26.7703 4.43854 26.826 3.8983 26.8944C3.40531 26.9542 2.91609 27.0417 2.43296 27.1566C2.16079 27.2238 1.89682 27.3207 1.64579 27.4455C1.37846 27.5749 1.14498 27.765 0.963883 28.0004C0.770483 28.267 0.672973 28.5911 0.687215 28.9201C0.690841 29.1984 0.760262 29.4719 0.889805 29.7183C1.0445 30.0068 1.28202 30.2424 1.57178 30.3948C1.97896 30.5969 2.43111 30.691 2.8851 30.6683Z" fill="white"/>
<path d="M12.346 30.9864V19.997C12.3462 19.9847 12.3487 19.9726 12.3536 19.9612C12.3584 19.9499 12.3654 19.9397 12.3743 19.9311C12.3831 19.9225 12.3935 19.9157 12.4049 19.9112C12.4163 19.9066 12.4286 19.9044 12.4409 19.9046H12.9059C12.9182 19.9044 12.9304 19.9066 12.9418 19.9112C12.9533 19.9158 12.9637 19.9225 12.9725 19.9311C12.9813 19.9397 12.9883 19.95 12.9931 19.9613C12.998 19.9726 13.0005 19.9847 13.0007 19.997V30.9861C13.0005 30.9984 12.998 31.0106 12.9931 31.0219C12.9883 31.0332 12.9813 31.0434 12.9725 31.052C12.9636 31.0606 12.9532 31.0673 12.9418 31.0719C12.9304 31.0764 12.9182 31.0787 12.9059 31.0785H12.4409C12.4161 31.0789 12.3921 31.0694 12.3744 31.0521C12.3566 31.0348 12.3464 31.0112 12.346 30.9864Z" fill="white"/>
<path d="M18.7679 30.9864V19.997C18.768 19.9847 18.7706 19.9726 18.7754 19.9613C18.7802 19.95 18.7873 19.9397 18.7961 19.9311C18.8049 19.9225 18.8153 19.9158 18.8267 19.9112C18.8381 19.9066 18.8503 19.9044 18.8626 19.9045H19.3277C19.34 19.9044 19.3522 19.9066 19.3636 19.9112C19.375 19.9158 19.3854 19.9225 19.3943 19.9311C19.4031 19.9397 19.4101 19.95 19.4149 19.9613C19.4198 19.9726 19.4223 19.9847 19.4225 19.997V30.9861C19.4223 30.9984 19.4197 31.0105 19.4149 31.0218C19.4101 31.0331 19.403 31.0434 19.3942 31.052C19.3854 31.0606 19.375 31.0673 19.3636 31.0719C19.3522 31.0764 19.34 31.0787 19.3277 31.0785H18.8626C18.8379 31.0789 18.814 31.0693 18.7962 31.0521C18.7784 31.0348 18.7682 31.0111 18.7679 30.9864Z" fill="white"/>
<path d="M33.8714 31.3068C33.3096 31.3267 32.7511 31.212 32.2426 30.9723C31.8535 30.7861 31.5257 30.4925 31.2979 30.1262C31.07 29.7599 30.9516 29.3361 30.9566 28.9048C30.9403 28.4821 31.0531 28.0645 31.2801 27.7076C31.4951 27.3914 31.7858 27.134 32.1257 26.9588C32.4792 26.7745 32.8571 26.6414 33.2481 26.5635C33.7364 26.4673 34.2598 26.3825 34.8184 26.3089C35.377 26.2353 35.8927 26.1732 36.3654 26.1226C36.8381 26.0721 37.1915 26.0316 37.4255 26.0011L37.3413 26.0558C37.3272 26.0652 37.3108 26.0706 37.2939 26.0715C37.277 26.0724 37.2602 26.0688 37.2452 26.061C37.2302 26.0532 37.2175 26.0416 37.2085 26.0272C37.1995 26.0129 37.1945 25.9964 37.1941 25.9795C37.2461 25.2737 37.054 24.5714 36.65 23.9904C36.3834 23.7271 36.0614 23.5266 35.7075 23.4036C35.3535 23.2806 34.9766 23.2382 34.6042 23.2795C34.0024 23.25 33.4065 23.4109 32.9014 23.7394C32.468 24.068 32.1594 24.5344 32.0262 25.0617C32.0191 25.0852 32.0031 25.1051 31.9817 25.1172C31.9603 25.1293 31.9351 25.1326 31.9112 25.1265L31.3757 24.9902C31.3637 24.9874 31.3525 24.9822 31.3426 24.9749C31.3327 24.9677 31.3243 24.9585 31.318 24.9481C31.3116 24.9376 31.3074 24.9259 31.3056 24.9138C31.3038 24.9016 31.3044 24.8893 31.3074 24.8774C31.4684 24.2098 31.8693 23.6249 32.4338 23.2338C33.0902 22.8168 33.8583 22.61 34.6354 22.6409C35.3149 22.6164 35.9882 22.7766 36.5838 23.1046C37.0764 23.3817 37.4527 23.8269 37.6438 24.3588C37.7244 24.5977 37.7767 24.8451 37.7997 25.0962C37.8304 25.3764 37.846 25.6581 37.8465 25.94V30.986C37.8463 30.9983 37.8438 31.0104 37.8389 31.0217C37.8341 31.033 37.827 31.0433 37.8182 31.0519C37.8094 31.0604 37.799 31.0672 37.7876 31.0718C37.7762 31.0763 37.764 31.0786 37.7517 31.0784H37.3334C37.3211 31.0786 37.3089 31.0763 37.2974 31.0718C37.286 31.0672 37.2756 31.0604 37.2668 31.0519C37.258 31.0433 37.251 31.033 37.2461 31.0217C37.2413 31.0104 37.2387 30.9983 37.2386 30.986V28.9262C37.2387 28.9135 37.2414 28.901 37.2466 28.8894C37.2517 28.8777 37.2592 28.8673 37.2685 28.8587C37.2778 28.85 37.2888 28.8434 37.3007 28.8391C37.3127 28.8349 37.3254 28.8331 37.338 28.8339L37.4296 28.8383C37.4438 28.8387 37.4577 28.8424 37.4703 28.849C37.4828 28.8556 37.4937 28.8651 37.5021 28.8765C37.5104 28.888 37.516 28.9013 37.5184 28.9153C37.5208 28.9293 37.52 28.9436 37.516 28.9572C37.2996 29.6615 36.8393 30.2655 36.2176 30.661C35.516 31.102 34.7 31.3266 33.8714 31.3068ZM33.8402 30.6683C34.3935 30.6793 34.9425 30.5704 35.4496 30.3491C35.9016 30.1469 36.2917 29.8281 36.5798 29.4255C36.8788 28.9951 37.0675 28.4978 37.1293 27.9775C37.1721 27.6753 37.1929 27.3704 37.1916 27.0653V26.554C37.192 26.5364 37.1973 26.5193 37.2068 26.5046C37.2163 26.4899 37.2297 26.4781 37.2456 26.4705C37.2614 26.4629 37.279 26.4599 37.2964 26.4617C37.3139 26.4635 37.3305 26.4701 37.3444 26.4808C37.3594 26.4921 37.3706 26.5076 37.3765 26.5254C37.3825 26.5432 37.3828 26.5624 37.3774 26.5804C37.3721 26.5984 37.3614 26.6143 37.3468 26.6261C37.3321 26.6378 37.3142 26.6447 37.2955 26.646C37.0517 26.6681 36.7508 26.6951 36.3928 26.7271C35.9069 26.7702 35.3939 26.8259 34.8536 26.8943C34.3606 26.9541 33.8714 27.0416 33.3883 27.1566C33.1161 27.2237 32.8522 27.3206 32.6011 27.4454C32.3338 27.5749 32.1003 27.7649 31.9192 28.0003C31.7258 28.2669 31.6283 28.5911 31.6426 28.9201C31.6462 29.1984 31.7156 29.4719 31.8452 29.7182C31.9999 30.0068 32.2374 30.2424 32.5271 30.3948C32.9342 30.5968 33.3864 30.6909 33.8402 30.6683Z" fill="white"/>
<path d="M43.1456 30.9864V20.2254C43.1457 20.2131 43.1483 20.2009 43.1531 20.1896C43.158 20.1783 43.165 20.168 43.1738 20.1595C43.1826 20.1509 43.193 20.1441 43.2044 20.1395C43.2159 20.135 43.2281 20.1327 43.2404 20.1329H43.7055C43.7178 20.1327 43.73 20.135 43.7414 20.1395C43.7528 20.1441 43.7633 20.1509 43.7721 20.1595C43.7809 20.168 43.7879 20.1783 43.7927 20.1896C43.7976 20.2009 43.8001 20.2131 43.8003 20.2254V24.6176H43.7534V30.9863C43.7533 30.9986 43.7507 31.0107 43.7459 31.022C43.741 31.0333 43.734 31.0436 43.7252 31.0521C43.7164 31.0607 43.706 31.0675 43.6946 31.072C43.6832 31.0766 43.6709 31.0789 43.6587 31.0787H43.2404C43.2281 31.0789 43.2159 31.0766 43.2045 31.0721C43.1931 31.0675 43.1827 31.0608 43.1739 31.0522C43.1651 31.0436 43.1581 31.0334 43.1532 31.0221C43.1483 31.0108 43.1458 30.9987 43.1456 30.9864ZM46.7462 31.3069C46.0686 31.3272 45.4032 31.1242 44.8524 30.7292C44.3201 30.3277 43.9089 29.7872 43.6639 29.1671C43.117 27.7403 43.1184 26.1614 43.6678 24.7355C43.9174 24.1166 44.341 23.5833 44.8874 23.2C45.4748 22.8131 46.1678 22.6179 46.8708 22.6414C47.5563 22.6207 48.2301 22.8219 48.792 23.215C49.3299 23.6113 49.7468 24.1496 49.9961 24.7695C50.5495 26.1862 50.5467 27.7598 49.9882 29.1745C49.732 29.8002 49.3037 30.3405 48.753 30.7328C48.1608 31.1301 47.4589 31.331 46.7462 31.3069ZM46.7462 30.6683C47.3289 30.6887 47.9023 30.5179 48.3789 30.182C48.8291 29.8429 49.1737 29.3829 49.3726 28.8555C49.6041 28.2505 49.7179 27.6067 49.7077 26.959C49.7177 26.3172 49.6081 25.6792 49.3843 25.0776C49.192 24.5541 48.8523 24.0974 48.4062 23.7626C47.9199 23.4258 47.3372 23.2563 46.7462 23.28C46.1608 23.2597 45.584 23.4246 45.0978 23.7512C44.6431 24.0788 44.2938 24.5318 44.0925 25.0549C43.857 25.6615 43.7418 26.3083 43.7534 26.959C43.7432 27.6067 43.8569 28.2505 44.0885 28.8555C44.2884 29.3845 44.636 29.8449 45.0901 30.182C45.575 30.5186 46.1562 30.6893 46.7462 30.6683Z" fill="white"/>
<path d="M58.7788 31.3069C58.0383 31.3314 57.3068 31.1385 56.6747 30.7519C56.1 30.3784 55.6475 29.8445 55.3731 29.2164C55.0652 28.5043 54.9137 27.7345 54.9289 26.9588C54.912 26.1798 55.0663 25.4065 55.3809 24.6936C55.6597 24.0708 56.1167 23.5445 56.6941 23.1809C57.3366 22.8251 58.0594 22.6393 58.7938 22.6413C59.5283 22.6433 60.2501 22.833 60.8906 23.1923C61.4637 23.5616 61.915 24.0918 62.1882 24.7164C62.4936 25.4238 62.6437 26.1885 62.6285 26.9588C62.6454 27.7408 62.4939 28.5172 62.1843 29.2354C61.9098 29.8615 61.4557 30.3919 60.8794 30.7594C60.2465 31.1403 59.5171 31.3303 58.7788 31.3069ZM58.7788 30.6683C59.2276 30.7011 59.6777 30.6246 60.0904 30.4452C60.5032 30.2658 60.8662 29.9889 61.1483 29.6383C61.6972 28.8559 61.9713 27.9136 61.9277 26.9589C61.9776 26.0028 61.7014 25.0581 61.1445 24.2794C60.8575 23.9374 60.4934 23.6686 60.0822 23.4948C59.671 23.321 59.2244 23.2474 58.7792 23.2799C58.1567 23.2552 57.5414 23.4195 57.014 23.7511C56.5449 24.0704 56.1824 24.5232 55.9736 25.0509C55.7348 25.6582 55.6182 26.3066 55.6307 26.959C55.5835 27.9205 55.8651 28.8694 56.4291 29.6495C56.7118 29.9937 57.0723 30.2656 57.4809 30.4428C57.8895 30.6199 58.3344 30.6972 58.7788 30.6683Z" fill="white"/>
<path d="M70.8741 31.2613C70.4764 31.2656 70.0804 31.2065 69.7012 31.0864C69.3567 30.9759 69.0347 30.8048 68.7504 30.5809C68.4683 30.3559 68.2294 30.0816 68.0451 29.7714C67.8448 29.4322 67.6976 29.0644 67.6086 28.6806C67.5062 28.2408 67.4565 27.7905 67.4605 27.3389V22.9616C67.4606 22.9493 67.4632 22.9372 67.468 22.9259C67.4729 22.9146 67.4799 22.9043 67.4887 22.8957C67.4975 22.8871 67.5079 22.8804 67.5194 22.8758C67.5308 22.8713 67.543 22.869 67.5553 22.8692H68.0204C68.0327 22.869 68.0449 22.8713 68.0563 22.8758C68.0677 22.8804 68.0782 22.8871 68.087 22.8957C68.0958 22.9043 68.1028 22.9146 68.1076 22.9259C68.1125 22.9372 68.115 22.9493 68.1152 22.9616V27.2172C68.1064 27.7299 68.168 28.2414 68.2982 28.7374C68.3998 29.1283 68.5846 29.4925 68.8399 29.8054C69.0735 30.0828 69.372 30.2982 69.7088 30.4325C70.0805 30.575 70.476 30.6447 70.874 30.6377C71.3259 30.6506 71.7749 30.561 72.1872 30.3755C72.5343 30.2122 72.8355 29.9654 73.064 29.6572C73.2926 29.3418 73.4592 28.9858 73.5549 28.6082C73.6534 28.2275 73.7055 27.8363 73.7101 27.4431C73.7106 27.4189 73.7205 27.396 73.7376 27.3789C73.7547 27.3619 73.7777 27.3522 73.8019 27.3517L74.2205 27.3412C74.2331 27.3408 74.2457 27.3429 74.2575 27.3474C74.2693 27.3519 74.28 27.3588 74.2891 27.3675C74.2982 27.3763 74.3055 27.3868 74.3105 27.3984C74.3154 27.41 74.318 27.4225 74.3181 27.4351C74.3398 28.1873 74.1768 28.9333 73.8433 29.6078C73.5631 30.1465 73.1235 30.5858 72.5846 30.8658C72.0539 31.1313 71.4676 31.2669 70.8741 31.2613ZM73.8524 31.0788C73.8401 31.0789 73.8279 31.0767 73.8165 31.0721C73.8051 31.0676 73.7947 31.0608 73.7859 31.0522C73.7771 31.0436 73.7701 31.0334 73.7652 31.0221C73.7604 31.0108 73.7578 30.9987 73.7577 30.9864V29.4064H73.711V22.9618C73.7111 22.9495 73.7137 22.9374 73.7185 22.9261C73.7233 22.9147 73.7304 22.9045 73.7392 22.8959C73.748 22.8873 73.7584 22.8806 73.7698 22.876C73.7812 22.8714 73.7934 22.8692 73.8057 22.8693H74.2708C74.2831 22.8692 74.2953 22.8714 74.3067 22.876C74.3181 22.8806 74.3285 22.8873 74.3373 22.8959C74.3461 22.9045 74.3532 22.9147 74.358 22.9261C74.3628 22.9374 74.3654 22.9495 74.3655 22.9618V30.9864C74.3654 30.9987 74.3628 31.0108 74.358 31.0221C74.3531 31.0334 74.3461 31.0436 74.3373 31.0522C74.3285 31.0608 74.3181 31.0676 74.3067 31.0721C74.2953 31.0767 74.2831 31.0789 74.2708 31.0788H73.8524Z" fill="white"/>
<path d="M78.8856 23.4154V22.9618C78.8858 22.9495 78.8883 22.9374 78.8932 22.926C78.898 22.9147 78.905 22.9045 78.9138 22.8959C78.9226 22.8873 78.9331 22.8806 78.9445 22.876C78.9559 22.8714 78.9681 22.8692 78.9804 22.8693H84.0748C84.0871 22.8692 84.0993 22.8714 84.1108 22.876C84.1222 22.8805 84.1326 22.8873 84.1414 22.8959C84.1502 22.9045 84.1572 22.9147 84.1621 22.926C84.1669 22.9373 84.1695 22.9495 84.1696 22.9618V23.4154C84.1695 23.4277 84.1669 23.4399 84.1621 23.4512C84.1572 23.4625 84.1502 23.4728 84.1414 23.4814C84.1326 23.4899 84.1222 23.4967 84.1108 23.5013C84.0993 23.5058 84.0871 23.5081 84.0748 23.5079H78.9804C78.9681 23.5081 78.9559 23.5058 78.9445 23.5013C78.9331 23.4967 78.9226 23.4899 78.9138 23.4813C78.905 23.4727 78.898 23.4625 78.8932 23.4512C78.8883 23.4399 78.8858 23.4277 78.8856 23.4154ZM84.1696 31.0034C84.1694 31.025 84.1617 31.0459 84.1479 31.0625C84.1341 31.0791 84.115 31.0905 84.0938 31.0946C83.7086 31.1732 83.3151 31.2024 82.9226 31.1814C82.5397 31.166 82.1648 31.0674 81.8238 30.8926C81.5025 30.7239 81.2473 30.4522 81.099 30.1211C80.9774 29.8647 80.906 29.5874 80.8885 29.3042C80.8729 29.0281 80.8652 28.7127 80.8652 28.3579V20.6814C80.8654 20.6691 80.8679 20.6569 80.8728 20.6456C80.8776 20.6343 80.8846 20.6241 80.8934 20.6155C80.9022 20.6069 80.9127 20.6002 80.9241 20.5956C80.9355 20.5911 80.9477 20.5888 80.96 20.589H81.425C81.4373 20.5888 81.4495 20.591 81.4609 20.5956C81.4723 20.6001 81.4827 20.6069 81.4916 20.6155C81.5004 20.6241 81.5074 20.6343 81.5122 20.6456C81.5171 20.6569 81.5197 20.6691 81.5198 20.6814V28.3576C81.5198 28.7123 81.5237 28.9986 81.5315 29.2165C81.5383 29.431 81.5929 29.6414 81.6913 29.8322C81.776 30.0063 81.9005 30.1581 82.0549 30.275C82.2093 30.3919 82.3891 30.4707 82.5797 30.5049C83.0704 30.5836 83.5709 30.5778 84.0597 30.4878C84.073 30.4856 84.0867 30.4862 84.0998 30.4898C84.1129 30.4933 84.125 30.4996 84.1355 30.5082C84.1459 30.5169 84.1544 30.5277 84.1602 30.5399C84.1661 30.5521 84.1693 30.5654 84.1696 30.5789V31.0034Z" fill="white"/>
<path d="M95.3921 30.9863V22.9618C95.3922 22.9495 95.3948 22.9373 95.3996 22.926C95.4044 22.9147 95.4115 22.9045 95.4203 22.8959C95.4291 22.8873 95.4395 22.8805 95.4509 22.876C95.4623 22.8714 95.4745 22.8692 95.4868 22.8693H95.9051C95.9174 22.8692 95.9296 22.8714 95.9411 22.876C95.9525 22.8805 95.9629 22.8873 95.9717 22.8959C95.9805 22.9045 95.9875 22.9147 95.9924 22.926C95.9972 22.9373 95.9998 22.9495 95.9999 22.9618V24.5416H96.0467V30.9863C96.0466 30.9986 96.044 31.0108 96.0392 31.0221C96.0343 31.0334 96.0273 31.0436 96.0185 31.0522C96.0097 31.0608 95.9993 31.0675 95.9879 31.0721C95.9765 31.0767 95.9642 31.0789 95.952 31.0788H95.4868C95.4745 31.0789 95.4623 31.0767 95.4509 31.0721C95.4395 31.0675 95.4291 31.0608 95.4203 31.0522C95.4115 31.0436 95.4045 31.0334 95.3996 31.0221C95.3948 31.0108 95.3922 30.9986 95.3921 30.9863ZM100.491 31.0788C100.478 31.0789 100.466 31.0767 100.455 31.0721C100.443 31.0675 100.433 31.0607 100.424 31.0521C100.415 31.0435 100.408 31.0333 100.403 31.0219C100.398 31.0106 100.396 30.9984 100.396 30.9861L100.411 25.5301C100.427 25.2228 100.382 24.9154 100.278 24.6257C100.175 24.336 100.014 24.0698 99.807 23.8425C99.3805 23.4371 98.813 23.2136 98.2246 23.2193C97.6362 23.225 97.0732 23.4594 96.6546 23.873C96.2606 24.3176 96.0449 24.8921 96.0491 25.4862C96.0481 25.5013 96.0434 25.516 96.0355 25.529C96.0276 25.542 96.0167 25.5528 96.0037 25.5607C95.9907 25.5686 95.9759 25.5732 95.9608 25.5742C95.9456 25.5752 95.9304 25.5725 95.9165 25.5663L95.5283 25.4027C95.5111 25.3956 95.4965 25.3835 95.4862 25.368C95.4759 25.3525 95.4705 25.3343 95.4706 25.3157C95.472 24.8422 95.5982 24.3774 95.8363 23.968C96.0777 23.5578 96.4267 23.2214 96.8456 22.9953C97.2996 22.7533 97.808 22.6316 98.3224 22.6418C98.7828 22.6391 99.2381 22.7391 99.6551 22.9344C100.073 23.1318 100.424 23.4477 100.664 23.8428C100.939 24.3229 101.073 24.871 101.05 25.4239L101.035 30.9871C101.034 31.0119 101.024 31.0355 101.006 31.0528C100.989 31.0701 100.965 31.0796 100.94 31.0793L100.491 31.0788ZM105.478 31.0788C105.466 31.0789 105.454 31.0767 105.442 31.0721C105.431 31.0675 105.42 31.0607 105.412 31.0521C105.403 31.0435 105.396 31.0332 105.391 31.0219C105.386 31.0106 105.384 30.9984 105.383 30.9861L105.399 25.4234C105.418 25.1347 105.377 24.8452 105.277 24.5735C105.178 24.3019 105.023 24.0541 104.821 23.8464C104.62 23.6386 104.377 23.4753 104.109 23.3673C103.841 23.2592 103.552 23.2087 103.263 23.2189C102.915 23.2223 102.572 23.2973 102.254 23.4394C101.901 23.5974 101.603 23.8567 101.397 24.1844C101.157 24.5911 101.037 25.0574 101.051 25.5294C101.05 25.554 101.04 25.5774 101.022 25.5945C101.005 25.6117 100.981 25.6212 100.956 25.621H100.566C100.541 25.6213 100.518 25.6121 100.5 25.5952C100.482 25.5784 100.471 25.5553 100.47 25.5308C100.447 25.0163 100.56 24.5047 100.797 24.0475C101.029 23.6111 101.382 23.2509 101.814 23.0099C102.272 22.7587 102.788 22.6316 103.31 22.6413C104.037 22.6156 104.744 22.8778 105.278 23.3708C105.542 23.6315 105.748 23.9451 105.881 24.2911C106.015 24.637 106.074 25.0073 106.054 25.3777L106.038 30.9865C106.038 31.0113 106.028 31.0349 106.01 31.0522C105.992 31.0694 105.968 31.079 105.944 31.0786L105.478 31.0788Z" fill="white"/>
<path d="M114.611 31.2613C114.213 31.2656 113.817 31.2065 113.438 31.0864C113.093 30.9759 112.771 30.8048 112.487 30.5809C112.205 30.3559 111.966 30.0816 111.782 29.7714C111.581 29.4322 111.434 29.0644 111.345 28.6806C111.243 28.2408 111.193 27.7905 111.197 27.3389V22.9616C111.197 22.9493 111.2 22.9372 111.205 22.9259C111.209 22.9146 111.216 22.9043 111.225 22.8957C111.234 22.8871 111.244 22.8804 111.256 22.8758C111.267 22.8713 111.279 22.869 111.292 22.8692H111.757C111.769 22.869 111.781 22.8713 111.793 22.8758C111.804 22.8804 111.815 22.8871 111.823 22.8957C111.832 22.9043 111.839 22.9146 111.844 22.9259C111.849 22.9372 111.852 22.9493 111.852 22.9616V27.2172C111.843 27.7299 111.904 28.2414 112.035 28.7374C112.136 29.1283 112.321 29.4925 112.576 29.8054C112.81 30.0828 113.108 30.2982 113.445 30.4325C113.817 30.575 114.213 30.6447 114.61 30.6377C115.062 30.6506 115.511 30.561 115.924 30.3755C116.271 30.2121 116.572 29.9653 116.8 29.6572C117.029 29.3418 117.196 28.9858 117.291 28.6082C117.39 28.2275 117.442 27.8363 117.447 27.4431C117.447 27.4189 117.457 27.396 117.474 27.3789C117.491 27.3619 117.514 27.3522 117.538 27.3517L117.957 27.3412C117.97 27.3408 117.982 27.3429 117.994 27.3474C118.006 27.3519 118.017 27.3588 118.026 27.3675C118.035 27.3763 118.042 27.3868 118.047 27.3984C118.052 27.41 118.055 27.4225 118.055 27.4351C118.076 28.1873 117.913 28.9333 117.58 29.6078C117.3 30.1465 116.86 30.5858 116.321 30.8658C115.79 31.1314 115.204 31.2669 114.611 31.2613ZM117.589 31.0788C117.577 31.079 117.564 31.0767 117.553 31.0722C117.542 31.0676 117.531 31.0608 117.522 31.0523C117.514 31.0437 117.506 31.0334 117.502 31.0221C117.497 31.0108 117.494 30.9987 117.494 30.9864V29.4064H117.447V22.9618C117.448 22.9495 117.45 22.9374 117.455 22.9261C117.46 22.9147 117.467 22.9045 117.476 22.8959C117.484 22.8873 117.495 22.8806 117.506 22.876C117.518 22.8714 117.53 22.8692 117.542 22.8693H118.007C118.019 22.8692 118.032 22.8714 118.043 22.876C118.055 22.8806 118.065 22.8873 118.074 22.8959C118.083 22.9045 118.09 22.9147 118.094 22.9261C118.099 22.9374 118.102 22.9495 118.102 22.9618V30.9864C118.102 30.9987 118.099 31.0108 118.094 31.0221C118.09 31.0334 118.083 31.0436 118.074 31.0522C118.065 31.0608 118.055 31.0676 118.043 31.0721C118.032 31.0767 118.019 31.0789 118.007 31.0788H117.589Z" fill="white"/>
<path d="M126.628 31.2916C125.799 31.3227 124.978 31.1213 124.258 30.7102C123.976 30.5467 123.73 30.3288 123.533 30.069C123.336 29.8092 123.193 29.5128 123.112 29.1971C123.109 29.1847 123.109 29.172 123.111 29.1595C123.113 29.147 123.118 29.1352 123.125 29.1246C123.132 29.1141 123.141 29.1051 123.152 29.0983C123.163 29.0915 123.175 29.0869 123.187 29.0848L123.676 28.9962C123.698 28.9921 123.722 28.9964 123.742 29.0083C123.762 29.0202 123.776 29.0389 123.784 29.061C123.949 29.5475 124.293 29.9534 124.745 30.1972C125.326 30.517 125.981 30.6746 126.643 30.6533C127.285 30.687 127.921 30.5195 128.463 30.1743C128.676 30.0324 128.85 29.8387 128.968 29.6114C129.086 29.3841 129.144 29.1305 129.137 28.8745C129.148 28.6148 129.077 28.3582 128.934 28.141C128.723 27.8985 128.45 27.7184 128.143 27.6203C127.576 27.4079 126.997 27.2278 126.409 27.0806C125.772 26.9228 125.148 26.7156 124.543 26.4611C124.178 26.3201 123.856 26.087 123.608 25.7845C123.422 25.5131 123.328 25.1896 123.339 24.8611C123.333 24.4415 123.474 24.033 123.736 23.7056C124.027 23.3524 124.406 23.0823 124.835 22.9227C125.352 22.7263 125.903 22.6308 126.456 22.6414C127.028 22.6329 127.595 22.7348 128.128 22.9417C128.59 23.1182 129.002 23.4052 129.328 23.7778C129.608 24.1023 129.788 24.5016 129.844 24.9267C129.847 24.9504 129.84 24.9742 129.826 24.9932C129.811 25.0123 129.79 25.025 129.767 25.0289L129.276 25.1178C129.252 25.1223 129.227 25.1171 129.206 25.1034C129.186 25.0896 129.172 25.0684 129.166 25.0442C129.112 24.7846 129.006 24.5387 128.854 24.3211C128.702 24.1035 128.508 23.9187 128.284 23.7778C127.722 23.4293 127.07 23.256 126.409 23.28C125.808 23.2445 125.209 23.39 124.691 23.6978C124.49 23.8107 124.322 23.975 124.205 24.174C124.088 24.373 124.025 24.5995 124.025 24.8303C124.019 25.0718 124.099 25.3076 124.251 25.4955C124.468 25.7252 124.738 25.8986 125.038 26.001C125.546 26.1942 126.067 26.3517 126.597 26.4723C127.27 26.625 127.928 26.8361 128.564 27.1032C128.957 27.2557 129.299 27.5134 129.554 27.8481C129.753 28.1639 129.852 28.532 129.839 28.9047C129.852 29.2449 129.78 29.583 129.631 29.8887C129.481 30.1945 129.258 30.4584 128.981 30.6569C128.285 31.1158 127.46 31.3384 126.628 31.2916Z" fill="white"/>
<path d="M134.998 21.0135V20.2254C134.998 20.2131 135.001 20.2009 135.005 20.1896C135.01 20.1783 135.017 20.168 135.026 20.1595C135.035 20.1509 135.045 20.1441 135.057 20.1395C135.068 20.135 135.08 20.1327 135.093 20.1329H135.558C135.57 20.1327 135.582 20.135 135.594 20.1395C135.605 20.1441 135.616 20.1509 135.624 20.1595C135.633 20.168 135.64 20.1783 135.645 20.1896C135.65 20.2009 135.652 20.2131 135.653 20.2254V21.0135C135.652 21.0258 135.65 21.0379 135.645 21.0492C135.64 21.0605 135.633 21.0708 135.624 21.0793C135.616 21.0879 135.605 21.0947 135.594 21.0993C135.582 21.1038 135.57 21.1061 135.558 21.1059H135.093C135.08 21.1061 135.068 21.1038 135.057 21.0993C135.045 21.0947 135.035 21.0879 135.026 21.0793C135.017 21.0708 135.01 21.0605 135.005 21.0492C135.001 21.0379 134.998 21.0258 134.998 21.0135ZM134.998 30.9865V22.9619C134.998 22.9496 135.001 22.9374 135.005 22.9261C135.01 22.9148 135.017 22.9045 135.026 22.896C135.035 22.8874 135.045 22.8806 135.057 22.876C135.068 22.8715 135.08 22.8692 135.093 22.8694H135.558C135.57 22.8692 135.582 22.8715 135.594 22.876C135.605 22.8806 135.616 22.8874 135.624 22.896C135.633 22.9045 135.64 22.9148 135.645 22.9261C135.65 22.9374 135.652 22.9496 135.653 22.9619V30.9864C135.652 30.9987 135.65 31.0109 135.645 31.0222C135.64 31.0335 135.633 31.0437 135.624 31.0523C135.616 31.0608 135.605 31.0676 135.594 31.0722C135.582 31.0767 135.57 31.079 135.558 31.0788H135.093C135.08 31.079 135.068 31.0767 135.057 31.0722C135.045 31.0676 135.035 31.0608 135.026 31.0523C135.017 31.0437 135.01 31.0335 135.005 31.0222C135.001 31.0109 134.998 30.9988 134.998 30.9865Z" fill="white"/>
<path d="M144.646 31.3069C143.906 31.3328 143.175 31.1426 142.542 30.7595C141.972 30.3902 141.524 29.8598 141.256 29.2355C140.952 28.5156 140.796 27.7419 140.796 26.9604C140.797 26.1789 140.955 25.4055 141.26 24.6861C141.529 24.0655 141.979 23.5399 142.55 23.1771C143.183 22.802 143.911 22.616 144.646 22.6412C145.378 22.6287 146.099 22.8167 146.731 23.1848C147.292 23.5064 147.735 24.0004 147.993 24.5934C147.998 24.6047 148 24.6168 148 24.629C148 24.6412 147.998 24.6533 147.993 24.6645C147.988 24.6758 147.981 24.686 147.972 24.6945C147.964 24.703 147.953 24.7097 147.942 24.7142L147.49 24.9017C147.467 24.911 147.442 24.9113 147.419 24.9026C147.396 24.8938 147.378 24.8767 147.367 24.8547C147.143 24.378 146.78 23.9801 146.326 23.713C145.816 23.4179 145.235 23.2681 144.646 23.2798C144.028 23.2555 143.417 23.4185 142.893 23.7475C142.424 24.0666 142.063 24.5196 141.856 25.0473C141.616 25.6612 141.495 26.315 141.498 26.9741C141.465 27.9334 141.75 28.8768 142.308 29.6573C142.589 30 142.948 30.2705 143.355 30.4463C143.762 30.6222 144.204 30.6983 144.647 30.6683C145.222 30.6794 145.79 30.5351 146.291 30.2505C146.749 29.9818 147.117 29.5841 147.35 29.1072C147.361 29.0856 147.38 29.0689 147.403 29.0606C147.426 29.0523 147.451 29.053 147.473 29.0625L147.935 29.2601C147.947 29.2651 147.958 29.2725 147.966 29.2818C147.975 29.2912 147.982 29.3023 147.986 29.3144C147.991 29.3266 147.992 29.3395 147.991 29.3524C147.99 29.3652 147.987 29.3777 147.981 29.3891C147.671 29.9697 147.212 30.4563 146.649 30.7979C146.04 31.147 145.348 31.323 144.646 31.3069Z" fill="white"/>
</svg>
