<svg width="148" height="48" viewBox="0 0 148 48" fill="none" xmlns="http://www.w3.org/2000/svg">
<path d="M20.1955 9.20632C19.3357 8.23437 18.064 7.74842 16.3803 7.74846C15.4479 7.73652 14.5268 7.95368 13.6979 8.38089C13.2093 8.63414 12.7657 8.96624 12.3851 9.36382C12.3222 9.42884 12.2464 9.48001 12.1626 9.51404C12.0788 9.54808 11.9887 9.56422 11.8983 9.56145C11.8079 9.55867 11.719 9.53704 11.6374 9.49793C11.5558 9.45882 11.4833 9.4031 11.4245 9.33434C11.1401 8.99749 10.8067 8.70526 10.4355 8.4674C9.57654 7.95701 8.58777 7.70723 7.58946 7.74846C6.63708 7.73459 5.69633 7.95882 4.85261 8.4008C4.24935 8.71801 3.71379 9.1499 3.27598 9.67226V9.65876L2.99658 8.56908C2.96 8.43212 2.87894 8.31119 2.76615 8.22531C2.65335 8.13943 2.51522 8.09346 2.37346 8.09464H0.642357C0.474109 8.09255 0.311919 8.15737 0.191458 8.27485C0.0709973 8.39233 0.00212912 8.55284 0 8.72109V21.8471C0.00212918 22.0153 0.0709953 22.1758 0.191454 22.2933C0.311914 22.4108 0.474103 22.4757 0.642357 22.4736H3.09814C3.26639 22.4757 3.42857 22.4108 3.54902 22.2933C3.66947 22.1758 3.73832 22.0153 3.74043 21.8471V13.7662C3.70901 13.0288 3.96047 12.3072 4.4434 11.7491C4.67823 11.4911 4.96674 11.2876 5.28865 11.153C5.61056 11.0185 5.95804 10.9561 6.30665 10.9702C6.66305 10.9519 7.01902 11.0135 7.34852 11.1506C7.67801 11.2876 7.97267 11.4967 8.21091 11.7624C8.70405 12.3922 8.94927 13.1808 8.90019 13.9792V21.8471C8.9023 22.0153 8.97116 22.1758 9.09161 22.2933C9.21206 22.4108 9.37424 22.4757 9.54249 22.4736H11.9708C12.139 22.4757 12.3012 22.4108 12.4216 22.2933C12.5421 22.1758 12.6109 22.0153 12.6131 21.8471V13.7662C12.6028 13.2616 12.7127 12.7619 12.9337 12.3083C13.1333 11.9024 13.4432 11.561 13.8278 11.3231C14.2362 11.0809 14.7046 10.9586 15.1792 10.9702C15.5356 10.9519 15.8917 11.0135 16.2212 11.1506C16.5507 11.2877 16.8454 11.4968 17.0836 11.7626C17.5767 12.3923 17.822 13.181 17.7729 13.9794V21.8471C17.775 22.0153 17.8439 22.1758 17.9643 22.2933C18.0848 22.4108 18.2469 22.4756 18.4152 22.4736H20.8436C21.0118 22.4756 21.174 22.4108 21.2944 22.2933C21.4149 22.1758 21.4837 22.0153 21.4859 21.8471V13.0208C21.5492 11.6325 21.0886 10.2711 20.1955 9.20632Z" fill="#ED2024"/>
<path d="M35.4773 8.09463C35.3091 8.09255 35.1469 8.15738 35.0265 8.27486C34.906 8.39233 34.8372 8.55284 34.835 8.72107V15.3906C34.8591 16.1197 34.7552 16.8475 34.528 17.5408C34.3717 18.0116 34.1022 18.4368 33.743 18.779C33.4503 19.0444 33.0999 19.2381 32.7194 19.3448C32.3861 19.4382 32.0419 19.4874 31.6958 19.4912C31.0425 19.5325 30.3947 19.3493 29.8598 18.972C29.4349 18.6361 29.1113 18.1891 28.9248 17.6806C28.7382 17.1869 28.6233 16.6691 28.5835 16.1429C28.547 15.6325 28.5288 15.2132 28.5289 14.8849V8.72107C28.5268 8.55284 28.4579 8.39233 28.3374 8.27486C28.217 8.15738 28.0548 8.09255 27.8866 8.09463H25.4035C25.2353 8.09255 25.0731 8.15738 24.9526 8.27486C24.8322 8.39233 24.7633 8.55284 24.7612 8.72107V16.1628C24.7612 16.4024 24.7794 16.7841 24.8159 17.3078C24.8636 17.8958 24.9687 18.4777 25.1298 19.0452C25.3122 19.7004 25.6054 20.3196 25.9965 20.876C26.4358 21.4915 27.0194 21.9898 27.6961 22.3272C28.5784 22.7419 29.5475 22.9382 30.5217 22.8996C31.7843 22.9483 33.0339 22.6291 34.1185 21.9808C34.5531 21.7023 34.9499 21.3689 35.2993 20.9889V20.9932L35.5629 22.002C35.5999 22.1383 35.6811 22.2585 35.7937 22.3439C35.9063 22.4292 36.044 22.4749 36.1852 22.4738H37.933C38.1012 22.4758 38.2634 22.411 38.3839 22.2935C38.5043 22.176 38.5732 22.0155 38.5753 21.8472V8.72107C38.5732 8.55284 38.5043 8.39233 38.3839 8.27486C38.2634 8.15738 38.1012 8.09255 37.933 8.09463H35.4773Z" fill="#ED2024"/>
<path d="M48.1572 22.8729C46.5654 22.9483 44.9907 22.5172 43.6594 21.6414C42.7059 20.9633 42.0214 19.9712 41.726 18.8391C41.7037 18.7531 41.6999 18.6633 41.7149 18.5757C41.73 18.4882 41.7635 18.4048 41.8132 18.3311C41.8629 18.2575 41.9278 18.1953 42.0034 18.1486C42.079 18.102 42.1637 18.0719 42.2518 18.0605L44.8271 17.681C44.9709 17.6601 45.1175 17.6878 45.2437 17.7598C45.37 17.8318 45.4685 17.944 45.5236 18.0784C45.7054 18.5235 46.0105 18.9074 46.403 19.185C47.0009 19.586 47.7108 19.7865 48.4302 19.7575C48.9753 19.7908 49.5177 19.6585 49.9862 19.378C50.1603 19.2632 50.302 19.1055 50.3976 18.9202C50.4932 18.7348 50.5396 18.528 50.5323 18.3196C50.5442 18.0722 50.4667 17.8288 50.3139 17.6339C50.035 17.3863 49.7 17.2104 49.3379 17.1213C48.8329 16.9528 48.048 16.7309 46.9832 16.4556C45.9882 16.2277 45.022 15.8883 44.1031 15.4438C43.472 15.148 42.9339 14.6853 42.5469 14.1057C42.2147 13.5347 42.0492 12.8821 42.0691 12.2218C42.0491 11.3643 42.3025 10.5226 42.7927 9.81871C43.3102 9.11213 44.0179 8.56726 44.8333 8.24763C45.8215 7.85906 46.8772 7.67123 47.9387 7.69511C48.9858 7.67631 50.0273 7.8524 51.01 8.21439C51.8427 8.5199 52.5862 9.02777 53.1737 9.69224C53.5715 10.152 53.867 10.6911 54.0403 11.2739C54.0653 11.3593 54.0719 11.4491 54.0596 11.5373C54.0472 11.6254 54.0163 11.71 53.9688 11.7853C53.9213 11.8606 53.8583 11.9249 53.784 11.974C53.7098 12.0231 53.6259 12.0558 53.538 12.0701L50.9871 12.5175C50.8418 12.5445 50.6917 12.5205 50.562 12.4496C50.4324 12.3787 50.3312 12.2653 50.2755 12.1284C50.1557 11.8207 49.9513 11.5531 49.686 11.3564C49.1951 11.0179 48.6168 10.8283 48.0207 10.8106C47.4583 10.7453 46.8889 10.8375 46.3758 11.0768C46.1902 11.1588 46.0326 11.2932 45.9222 11.4635C45.8119 11.6338 45.7537 11.8326 45.7547 12.0355C45.7523 12.1527 45.7747 12.269 45.8206 12.3769C45.8665 12.4848 45.9348 12.5817 46.0209 12.6612C46.3513 12.9058 46.7271 13.0823 47.1264 13.1803C47.686 13.3579 48.5392 13.5886 49.6858 13.8726C50.6226 14.0883 51.5284 14.4216 52.3817 14.8644C52.9885 15.1758 53.5001 15.6449 53.8627 16.2224C54.1861 16.8061 54.3464 17.466 54.3269 18.133C54.3542 18.8013 54.2195 19.4664 53.9343 20.0714C53.649 20.6765 53.2218 21.2036 52.6888 21.6079C51.3609 22.5216 49.7664 22.9667 48.1572 22.8729Z" fill="#ED2024"/>
<path d="M57.3479 8.58872C57.3659 8.47246 57.4154 8.36236 57.4917 8.26874C57.568 8.17513 57.6687 8.10108 57.7843 8.05355C57.8998 8.00601 58.0265 7.98656 58.1524 7.997C58.2782 8.00745 58.3992 8.04745 58.5039 8.11326L60.738 9.3687C60.8314 9.41413 60.9096 9.48246 60.9642 9.56629C61.0188 9.65011 61.0477 9.74623 61.0477 9.84422C61.0477 9.94221 61.0188 10.0383 60.9642 10.1222C60.9096 10.206 60.8314 10.2743 60.738 10.3197L58.5038 11.5752C58.3991 11.641 58.2781 11.681 58.1522 11.6914C58.0263 11.7018 57.8997 11.6823 57.7841 11.6347C57.6685 11.5872 57.5678 11.5131 57.4915 11.4194C57.4152 11.3258 57.3658 11.2157 57.3478 11.0994L57.3479 8.58872Z" fill="#ED2024"/>
<path d="M57.1929 22.4363V13.1388C57.1951 13.0196 57.2678 12.9059 57.3949 12.8227C57.522 12.7395 57.6931 12.6936 57.8706 12.6951H60.4326C60.6101 12.6936 60.7812 12.7395 60.9083 12.8227C61.0354 12.9059 61.108 13.0196 61.1102 13.1388V22.4363C61.108 22.5554 61.0354 22.6691 60.9083 22.7524C60.7812 22.8356 60.6101 22.8815 60.4326 22.88H57.8706C57.6931 22.8815 57.5219 22.8356 57.3949 22.7524C57.2678 22.6691 57.1951 22.5554 57.1929 22.4363Z" fill="#ED2024"/>
<path d="M71.9082 22.8729C70.5305 22.9121 69.1691 22.5663 67.977 21.8744C66.8998 21.2248 66.0289 20.283 65.4654 19.1584C64.8695 17.955 64.5699 16.6266 64.5918 15.284C64.568 13.9287 64.8799 12.5887 65.4996 11.3831C66.0833 10.2607 66.97 9.32434 68.059 8.68032C69.2458 8.00126 70.596 7.66051 71.9629 7.69511C73.5215 7.6413 75.0558 8.09189 76.3378 8.97989C77.3256 9.68701 78.0577 10.6952 78.4243 11.8534C78.4501 11.9351 78.4587 12.0211 78.4499 12.1063C78.441 12.1914 78.4147 12.2738 78.3726 12.3483C78.3306 12.4229 78.2737 12.488 78.2054 12.5396C78.1372 12.5913 78.059 12.6284 77.9759 12.6486L75.4543 13.2997C75.3055 13.3382 75.1479 13.3228 75.0094 13.2562C74.8709 13.1896 74.7605 13.0761 74.6977 12.9358C74.4888 12.4511 74.1608 12.027 73.7442 11.7029C73.221 11.2919 72.5735 11.0713 71.9082 11.0771C71.2238 11.0481 70.5484 11.2419 69.9836 11.6296C69.4739 12.0103 69.089 12.5341 68.878 13.1342C68.632 13.8239 68.5117 14.5522 68.523 15.2844C68.4729 16.3638 68.7721 17.4306 69.3762 18.3266C69.6687 18.7153 70.0532 19.0252 70.4952 19.2286C70.9372 19.4319 71.4227 19.5223 71.9082 19.4915C72.5916 19.5393 73.2694 19.3409 73.8193 18.9324C74.1693 18.6238 74.4446 18.2397 74.6245 17.8091C74.6852 17.6757 74.7896 17.5669 74.9205 17.5008C75.0513 17.4347 75.2008 17.4151 75.3443 17.4453L77.9019 17.9658C77.9909 17.9823 78.0754 18.0181 78.1492 18.0705C78.2231 18.1229 78.2847 18.1908 78.3298 18.2694C78.3748 18.348 78.4022 18.4355 78.41 18.5257C78.4179 18.616 78.406 18.7069 78.3752 18.7921C77.9639 19.9371 77.2125 20.9291 76.2218 21.6352C74.9504 22.4923 73.4406 22.9255 71.9082 22.8729Z" fill="#ED2024"/>
<path d="M88.6432 8.06133C88.2042 8.09123 87.7696 8.16711 87.3464 8.2877C86.9394 8.40261 86.5493 8.57054 86.1862 8.78718C85.7325 9.04453 85.3337 9.38829 85.0123 9.79903C84.8614 9.99313 84.7245 10.1978 84.6028 10.4114V10.4085L84.3042 8.62025C84.2777 8.47182 84.1995 8.33757 84.0834 8.24133C83.9674 8.14508 83.821 8.09306 83.6702 8.0945H81.969C81.8008 8.09241 81.6386 8.15724 81.5181 8.27472C81.3977 8.3922 81.3288 8.55271 81.3267 8.72095V21.8471C81.3288 22.0153 81.3977 22.1758 81.5181 22.2933C81.6386 22.4108 81.8008 22.4756 81.969 22.4736H84.4246C84.5929 22.4756 84.755 22.4108 84.8755 22.2933C84.9959 22.1758 85.0648 22.0153 85.0669 21.8471V15.1243C85.0595 14.6199 85.138 14.1179 85.2989 13.6398C85.4449 13.2151 85.6773 12.8253 85.9814 12.4948C86.2932 12.1628 86.6695 11.8978 87.0872 11.716C87.5499 11.5053 88.0473 11.3812 88.5548 11.3499C88.7998 11.3306 89.0459 11.3304 89.291 11.3493C89.378 11.3571 89.4658 11.3468 89.5487 11.319C89.6316 11.2913 89.7078 11.2467 89.7727 11.188C89.8375 11.1294 89.8895 11.058 89.9254 10.9782C89.9613 10.8985 89.9803 10.8123 89.9812 10.7249V8.67433C89.9789 8.50899 89.9122 8.35106 89.7954 8.23405C89.6785 8.11705 89.5207 8.05016 89.3553 8.04758C89.1179 8.04022 88.8802 8.04481 88.6432 8.06133Z" fill="#ED2024"/>
<path d="M98.9354 22.8729C97.5707 22.9029 96.2228 22.5673 95.0315 21.901C93.9268 21.2683 93.0213 20.339 92.4174 19.2183C91.7769 18.0075 91.4551 16.6536 91.4824 15.2841C91.4531 13.9034 91.7823 12.5388 92.4379 11.3233C93.0515 10.2064 93.9636 9.28215 95.0723 8.65384C96.271 8.022 97.6059 7.6929 98.9609 7.69521C100.316 7.69752 101.65 8.03117 102.846 8.66709C103.955 9.29944 104.865 10.2286 105.474 11.3499C106.094 12.5712 106.417 13.9218 106.416 15.2916C106.415 16.6614 106.09 18.0115 105.467 19.2317C104.855 20.3515 103.943 21.2783 102.833 21.9079C101.642 22.5683 100.297 22.9013 98.9354 22.8729ZM98.9354 19.4912C99.4426 19.5274 99.9509 19.439 100.416 19.2336C100.881 19.0282 101.289 18.7121 101.604 18.3129C102.222 17.4271 102.531 16.3629 102.484 15.284C102.541 14.1916 102.226 13.1123 101.59 12.2219C101.271 11.8337 100.863 11.5273 100.401 11.3282C99.9396 11.129 99.437 11.0429 98.9353 11.0769C98.2323 11.0474 97.537 11.2332 96.9424 11.6094C96.4168 11.9734 96.0146 12.4889 95.7893 13.0873C95.5263 13.7892 95.3989 14.5346 95.4138 15.284C95.3555 16.3788 95.6707 17.4608 96.308 18.3529C96.6243 18.7374 97.0275 19.0412 97.4843 19.2391C97.9411 19.437 98.4385 19.5235 98.9354 19.4912Z" fill="#ED2024"/>
<path d="M116.053 22.873C114.688 22.903 113.34 22.5674 112.149 21.9011C111.044 21.2683 110.138 20.339 109.535 19.2183C108.894 18.0075 108.572 16.6537 108.6 15.2842C108.57 13.9035 108.9 12.5388 109.555 11.3233C110.169 10.2064 111.081 9.28215 112.19 8.65384C113.388 8.022 114.723 7.6929 116.078 7.69521C117.433 7.69752 118.767 8.03117 119.964 8.6671C121.072 9.29944 121.982 10.2286 122.591 11.3499C123.212 12.5712 123.534 13.9218 123.533 15.2916C123.532 16.6614 123.207 18.0115 122.584 19.2317C121.972 20.3515 121.06 21.2783 119.95 21.9079C118.759 22.5684 117.414 22.9014 116.053 22.873ZM116.053 19.4913C116.56 19.5275 117.068 19.439 117.533 19.2336C117.998 19.0283 118.406 18.7122 118.721 18.313C119.339 17.4271 119.648 16.3629 119.602 15.2841C119.658 14.1917 119.343 13.1124 118.708 12.2219C118.388 11.8337 117.98 11.5273 117.519 11.3282C117.057 11.1291 116.554 11.0429 116.052 11.0769C115.349 11.0474 114.654 11.2332 114.06 11.6095C113.534 11.9734 113.132 12.489 112.906 13.0873C112.643 13.7892 112.516 14.5347 112.531 15.2841C112.472 16.3788 112.788 17.4609 113.425 18.353C113.741 18.7375 114.144 19.0413 114.601 19.2392C115.058 19.4372 115.556 19.5236 116.053 19.4913Z" fill="#ED2024"/>
<path d="M146.704 9.20632C145.844 8.23437 144.573 7.74841 142.889 7.74845C141.957 7.73649 141.036 7.95366 140.207 8.38088C139.718 8.63413 139.274 8.96623 138.894 9.36381C138.831 9.42884 138.755 9.48001 138.671 9.51404C138.587 9.54808 138.497 9.56422 138.407 9.56145C138.316 9.55867 138.228 9.53704 138.146 9.49793C138.064 9.45882 137.992 9.4031 137.933 9.33434C137.649 8.99748 137.315 8.70524 136.944 8.4674C136.085 7.95702 135.096 7.70724 134.098 7.74845C133.146 7.73459 132.205 7.95882 131.361 8.4008C130.776 8.70842 130.255 9.12363 129.824 9.62465V9.6236L129.526 8.5562C129.487 8.42224 129.405 8.30466 129.293 8.22134C129.181 8.13803 129.045 8.09353 128.906 8.09464H127.151C126.983 8.09257 126.82 8.15739 126.7 8.27487C126.579 8.39235 126.511 8.55285 126.508 8.72109V21.8471C126.511 22.0153 126.579 22.1758 126.7 22.2933C126.82 22.4108 126.983 22.4756 127.151 22.4736H129.606C129.775 22.4756 129.937 22.4108 130.057 22.2933C130.178 22.1758 130.247 22.0153 130.249 21.8471V13.7661C130.217 13.0288 130.469 12.3073 130.952 11.7491C131.199 11.5011 131.493 11.3045 131.817 11.1708C132.141 11.0371 132.488 10.9689 132.838 10.9702C133.189 10.9714 133.535 11.042 133.858 11.178C134.181 11.314 134.474 11.5126 134.719 11.7624C135.213 12.3921 135.458 13.1808 135.409 13.9792V21.8471C135.411 22.0153 135.48 22.1758 135.6 22.2933C135.721 22.4108 135.883 22.4756 136.051 22.4736H138.479C138.648 22.4756 138.81 22.4108 138.93 22.2933C139.051 22.1758 139.119 22.0153 139.122 21.8471V13.7661C139.111 13.2616 139.221 12.7619 139.442 12.3083C139.642 11.9024 139.952 11.561 140.336 11.3231C140.745 11.0809 141.213 10.9586 141.688 10.9702C142.044 10.9519 142.4 11.0135 142.73 11.1506C143.059 11.2876 143.354 11.4967 143.592 11.7624C144.085 12.3921 144.33 13.1808 144.281 13.9792V21.8471C144.283 22.0153 144.352 22.1758 144.473 22.2933C144.593 22.4108 144.755 22.4756 144.924 22.4736H147.352C147.52 22.4756 147.682 22.4108 147.803 22.2933C147.923 22.1758 147.992 22.0153 147.994 21.8471V13.0208C148.058 11.6325 147.597 10.2712 146.704 9.20632Z" fill="#ED2024"/>
<path d="M2.91627 40.3069C2.35445 40.3268 1.79602 40.2121 1.2875 39.9724C0.898433 39.7861 0.570686 39.4925 0.342862 39.1262C0.115038 38.76 -0.00337706 38.3362 0.00156214 37.9049C-0.0148225 37.4822 0.098001 37.0646 0.324996 36.7077C0.540003 36.3915 0.830689 36.1341 1.17059 35.9589C1.52409 35.7746 1.902 35.6415 2.29297 35.5636C2.7813 35.4674 3.30474 35.3826 3.86332 35.309C4.42189 35.2354 4.93756 35.1733 5.41034 35.1227C5.88307 35.0722 6.23641 35.0317 6.47037 35.0011L6.38619 35.0559C6.3721 35.0652 6.35575 35.0707 6.33885 35.0716C6.32195 35.0725 6.30512 35.0689 6.29009 35.0611C6.27507 35.0533 6.2624 35.0416 6.25341 35.0273C6.24442 35.013 6.23944 34.9965 6.23897 34.9796C6.29101 34.2737 6.09891 33.5715 5.69486 32.9904C5.4283 32.7271 5.10631 32.5267 4.75238 32.4037C4.39845 32.2807 4.02153 32.2383 3.64913 32.2796C3.04729 32.2501 2.45145 32.411 1.94628 32.7395C1.51293 33.0681 1.20427 33.5344 1.07101 34.0618C1.06391 34.0853 1.04799 34.1052 1.02658 34.1173C1.00516 34.1293 0.979902 34.1327 0.956089 34.1265L0.420274 33.9906C0.40834 33.9878 0.397092 33.9826 0.387184 33.9753C0.377276 33.9681 0.368904 33.9589 0.362557 33.9484C0.35621 33.9379 0.352013 33.9263 0.350211 33.9142C0.348409 33.902 0.349037 33.8896 0.352059 33.8777C0.513071 33.2102 0.913954 32.6253 1.47837 32.2342C2.13484 31.8172 2.9029 31.6104 3.67999 31.6413C4.35945 31.6168 5.03284 31.777 5.62839 32.105C6.12099 32.3821 6.4973 32.8273 6.68843 33.3592C6.76895 33.5981 6.82127 33.8455 6.84431 34.0966C6.87501 34.3768 6.89063 34.6584 6.89108 34.9403V39.9864C6.89093 39.9987 6.88836 40.0108 6.88352 40.0221C6.87867 40.0334 6.87165 40.0437 6.86285 40.0522C6.85404 40.0608 6.84364 40.0676 6.83222 40.0722C6.8208 40.0767 6.80859 40.079 6.7963 40.0788H6.37796C6.36567 40.079 6.35346 40.0767 6.34204 40.0722C6.33062 40.0676 6.32022 40.0608 6.31141 40.0522C6.30261 40.0437 6.29558 40.0334 6.29074 40.0221C6.2859 40.0108 6.28333 39.9987 6.28318 39.9864V37.9263C6.28332 37.9135 6.28606 37.901 6.29122 37.8893C6.29638 37.8777 6.30386 37.8673 6.31319 37.8586C6.32253 37.85 6.33354 37.8434 6.34553 37.8391C6.35752 37.8349 6.37026 37.8331 6.38295 37.834L6.47455 37.8384C6.48874 37.8388 6.50265 37.8425 6.5152 37.8491C6.52775 37.8557 6.53861 37.8651 6.54695 37.8766C6.55529 37.8881 6.56088 37.9014 6.56329 37.9153C6.5657 37.9293 6.56486 37.9437 6.56085 37.9573C6.34449 38.6616 5.88415 39.2656 5.2625 39.661C4.56082 40.1021 3.74481 40.3267 2.91627 40.3069ZM2.8851 39.6683C3.43829 39.6794 3.98732 39.5705 4.49441 39.3491C4.94634 39.1469 5.33636 38.8282 5.62447 38.4255C5.92343 37.9951 6.11211 37.4979 6.17394 36.9775C6.21673 36.6754 6.23757 36.3705 6.23629 36.0653V35.554C6.23669 35.5365 6.24195 35.5194 6.25147 35.5047C6.26099 35.4899 6.2744 35.4781 6.29022 35.4706C6.30604 35.463 6.32365 35.4599 6.3411 35.4618C6.35855 35.4636 6.37515 35.4702 6.38906 35.4809C6.40408 35.4921 6.4153 35.5077 6.4212 35.5255C6.42711 35.5433 6.42742 35.5625 6.4221 35.5805C6.41677 35.5985 6.40607 35.6144 6.39142 35.6261C6.37678 35.6379 6.35889 35.6448 6.34017 35.6461C6.09637 35.6682 5.79546 35.6952 5.43746 35.7271C4.95159 35.7703 4.43854 35.826 3.8983 35.8944C3.40531 35.9542 2.91609 36.0417 2.43296 36.1566C2.16079 36.2238 1.89682 36.3207 1.64579 36.4455C1.37846 36.5749 1.14498 36.765 0.963883 37.0004C0.770483 37.267 0.672973 37.5911 0.687215 37.9201C0.690841 38.1984 0.760262 38.4719 0.889805 38.7183C1.0445 39.0068 1.28202 39.2424 1.57178 39.3948C1.97896 39.5969 2.43111 39.691 2.8851 39.6683Z" fill="white"/>
<path d="M12.346 39.9864V28.997C12.3462 28.9847 12.3487 28.9726 12.3536 28.9612C12.3584 28.9499 12.3654 28.9397 12.3743 28.9311C12.3831 28.9225 12.3935 28.9157 12.4049 28.9112C12.4163 28.9066 12.4286 28.9044 12.4409 28.9046H12.9059C12.9182 28.9044 12.9304 28.9066 12.9418 28.9112C12.9533 28.9158 12.9637 28.9225 12.9725 28.9311C12.9813 28.9397 12.9883 28.95 12.9931 28.9613C12.998 28.9726 13.0005 28.9847 13.0007 28.997V39.9861C13.0005 39.9984 12.998 40.0106 12.9931 40.0219C12.9883 40.0332 12.9813 40.0434 12.9725 40.052C12.9636 40.0606 12.9532 40.0673 12.9418 40.0719C12.9304 40.0764 12.9182 40.0787 12.9059 40.0785H12.4409C12.4161 40.0789 12.3921 40.0694 12.3744 40.0521C12.3566 40.0348 12.3464 40.0112 12.346 39.9864Z" fill="white"/>
<path d="M18.7679 39.9864V28.997C18.768 28.9847 18.7706 28.9726 18.7754 28.9613C18.7802 28.95 18.7873 28.9397 18.7961 28.9311C18.8049 28.9225 18.8153 28.9158 18.8267 28.9112C18.8381 28.9066 18.8503 28.9044 18.8626 28.9045H19.3277C19.34 28.9044 19.3522 28.9066 19.3636 28.9112C19.375 28.9158 19.3854 28.9225 19.3943 28.9311C19.4031 28.9397 19.4101 28.95 19.4149 28.9613C19.4198 28.9726 19.4223 28.9847 19.4225 28.997V39.9861C19.4223 39.9984 19.4197 40.0105 19.4149 40.0218C19.4101 40.0331 19.403 40.0434 19.3942 40.052C19.3854 40.0606 19.375 40.0673 19.3636 40.0719C19.3522 40.0764 19.34 40.0787 19.3277 40.0785H18.8626C18.8379 40.0789 18.814 40.0693 18.7962 40.0521C18.7784 40.0348 18.7682 40.0111 18.7679 39.9864Z" fill="white"/>
<path d="M33.8714 40.3068C33.3096 40.3267 32.7511 40.212 32.2426 39.9723C31.8535 39.7861 31.5257 39.4925 31.2979 39.1262C31.07 38.7599 30.9516 38.3361 30.9566 37.9048C30.9403 37.4821 31.0531 37.0645 31.2801 36.7076C31.4951 36.3914 31.7858 36.134 32.1257 35.9588C32.4792 35.7745 32.8571 35.6414 33.2481 35.5635C33.7364 35.4673 34.2598 35.3825 34.8184 35.3089C35.377 35.2353 35.8927 35.1732 36.3654 35.1226C36.8381 35.0721 37.1915 35.0316 37.4255 35.0011L37.3413 35.0558C37.3272 35.0652 37.3108 35.0706 37.2939 35.0715C37.277 35.0724 37.2602 35.0688 37.2452 35.061C37.2302 35.0532 37.2175 35.0416 37.2085 35.0272C37.1995 35.0129 37.1945 34.9964 37.1941 34.9795C37.2461 34.2737 37.054 33.5714 36.65 32.9904C36.3834 32.7271 36.0614 32.5266 35.7075 32.4036C35.3535 32.2806 34.9766 32.2382 34.6042 32.2795C34.0024 32.25 33.4065 32.4109 32.9014 32.7394C32.468 33.068 32.1594 33.5344 32.0262 34.0617C32.0191 34.0852 32.0031 34.1051 31.9817 34.1172C31.9603 34.1293 31.9351 34.1326 31.9112 34.1265L31.3757 33.9902C31.3637 33.9874 31.3525 33.9822 31.3426 33.9749C31.3327 33.9677 31.3243 33.9585 31.318 33.9481C31.3116 33.9376 31.3074 33.9259 31.3056 33.9138C31.3038 33.9016 31.3044 33.8893 31.3074 33.8774C31.4684 33.2098 31.8693 32.6249 32.4338 32.2338C33.0902 31.8168 33.8583 31.61 34.6354 31.6409C35.3149 31.6164 35.9882 31.7766 36.5838 32.1046C37.0764 32.3817 37.4527 32.8269 37.6438 33.3588C37.7244 33.5977 37.7767 33.8451 37.7997 34.0962C37.8304 34.3764 37.846 34.6581 37.8465 34.94V39.986C37.8463 39.9983 37.8438 40.0104 37.8389 40.0217C37.8341 40.033 37.827 40.0433 37.8182 40.0519C37.8094 40.0604 37.799 40.0672 37.7876 40.0718C37.7762 40.0763 37.764 40.0786 37.7517 40.0784H37.3334C37.3211 40.0786 37.3089 40.0763 37.2974 40.0718C37.286 40.0672 37.2756 40.0604 37.2668 40.0519C37.258 40.0433 37.251 40.033 37.2461 40.0217C37.2413 40.0104 37.2387 39.9983 37.2386 39.986V37.9262C37.2387 37.9135 37.2414 37.901 37.2466 37.8894C37.2517 37.8777 37.2592 37.8673 37.2685 37.8587C37.2778 37.85 37.2888 37.8434 37.3007 37.8391C37.3127 37.8349 37.3254 37.8331 37.338 37.8339L37.4296 37.8383C37.4438 37.8387 37.4577 37.8424 37.4703 37.849C37.4828 37.8556 37.4937 37.8651 37.5021 37.8765C37.5104 37.888 37.516 37.9013 37.5184 37.9153C37.5208 37.9293 37.52 37.9436 37.516 37.9572C37.2996 38.6615 36.8393 39.2655 36.2176 39.661C35.516 40.102 34.7 40.3266 33.8714 40.3068ZM33.8402 39.6683C34.3935 39.6793 34.9425 39.5704 35.4496 39.3491C35.9016 39.1469 36.2917 38.8281 36.5798 38.4255C36.8788 37.9951 37.0675 37.4978 37.1293 36.9775C37.1721 36.6753 37.1929 36.3704 37.1916 36.0653V35.554C37.192 35.5364 37.1973 35.5193 37.2068 35.5046C37.2163 35.4899 37.2297 35.4781 37.2456 35.4705C37.2614 35.4629 37.279 35.4599 37.2964 35.4617C37.3139 35.4635 37.3305 35.4701 37.3444 35.4808C37.3594 35.4921 37.3706 35.5076 37.3765 35.5254C37.3825 35.5432 37.3828 35.5624 37.3774 35.5804C37.3721 35.5984 37.3614 35.6143 37.3468 35.6261C37.3321 35.6378 37.3142 35.6447 37.2955 35.646C37.0517 35.6681 36.7508 35.6951 36.3928 35.7271C35.9069 35.7702 35.3939 35.8259 34.8536 35.8943C34.3606 35.9541 33.8714 36.0416 33.3883 36.1566C33.1161 36.2237 32.8522 36.3206 32.6011 36.4454C32.3338 36.5749 32.1003 36.7649 31.9192 37.0003C31.7258 37.2669 31.6283 37.5911 31.6426 37.9201C31.6462 38.1984 31.7156 38.4719 31.8452 38.7182C31.9999 39.0068 32.2374 39.2424 32.5271 39.3948C32.9342 39.5968 33.3864 39.6909 33.8402 39.6683Z" fill="white"/>
<path d="M43.1456 39.9864V29.2254C43.1457 29.2131 43.1483 29.2009 43.1531 29.1896C43.158 29.1783 43.165 29.168 43.1738 29.1595C43.1826 29.1509 43.193 29.1441 43.2044 29.1395C43.2159 29.135 43.2281 29.1327 43.2404 29.1329H43.7055C43.7178 29.1327 43.73 29.135 43.7414 29.1395C43.7528 29.1441 43.7633 29.1509 43.7721 29.1595C43.7809 29.168 43.7879 29.1783 43.7927 29.1896C43.7976 29.2009 43.8001 29.2131 43.8003 29.2254V33.6176H43.7534V39.9863C43.7533 39.9986 43.7507 40.0107 43.7459 40.022C43.741 40.0333 43.734 40.0436 43.7252 40.0521C43.7164 40.0607 43.706 40.0675 43.6946 40.072C43.6832 40.0766 43.6709 40.0789 43.6587 40.0787H43.2404C43.2281 40.0789 43.2159 40.0766 43.2045 40.0721C43.1931 40.0675 43.1827 40.0608 43.1739 40.0522C43.1651 40.0436 43.1581 40.0334 43.1532 40.0221C43.1483 40.0108 43.1458 39.9987 43.1456 39.9864ZM46.7462 40.3069C46.0686 40.3272 45.4032 40.1242 44.8524 39.7292C44.3201 39.3277 43.9089 38.7872 43.6639 38.1671C43.117 36.7403 43.1184 35.1614 43.6678 33.7355C43.9174 33.1166 44.341 32.5833 44.8874 32.2C45.4748 31.8131 46.1678 31.6179 46.8708 31.6414C47.5563 31.6207 48.2301 31.8219 48.792 32.215C49.3299 32.6113 49.7468 33.1496 49.9961 33.7695C50.5495 35.1862 50.5467 36.7598 49.9882 38.1745C49.732 38.8002 49.3037 39.3405 48.753 39.7328C48.1608 40.1301 47.4589 40.331 46.7462 40.3069ZM46.7462 39.6683C47.3289 39.6887 47.9023 39.5179 48.3789 39.182C48.8291 38.8429 49.1737 38.3829 49.3726 37.8555C49.6041 37.2505 49.7179 36.6067 49.7077 35.959C49.7177 35.3172 49.6081 34.6792 49.3843 34.0776C49.192 33.5541 48.8523 33.0974 48.4062 32.7626C47.9199 32.4258 47.3372 32.2563 46.7462 32.28C46.1608 32.2597 45.584 32.4246 45.0978 32.7512C44.6431 33.0788 44.2938 33.5318 44.0925 34.0549C43.857 34.6615 43.7418 35.3083 43.7534 35.959C43.7432 36.6067 43.8569 37.2505 44.0885 37.8555C44.2884 38.3845 44.636 38.8449 45.0901 39.182C45.575 39.5186 46.1562 39.6893 46.7462 39.6683Z" fill="white"/>
<path d="M58.7788 40.3069C58.0383 40.3314 57.3068 40.1385 56.6747 39.7519C56.1 39.3784 55.6475 38.8445 55.3731 38.2164C55.0652 37.5043 54.9137 36.7345 54.9289 35.9588C54.912 35.1798 55.0663 34.4065 55.3809 33.6936C55.6597 33.0708 56.1167 32.5445 56.6941 32.1809C57.3366 31.8251 58.0594 31.6393 58.7938 31.6413C59.5283 31.6433 60.2501 31.833 60.8906 32.1923C61.4637 32.5616 61.915 33.0918 62.1882 33.7164C62.4936 34.4238 62.6437 35.1885 62.6285 35.9588C62.6454 36.7408 62.4939 37.5172 62.1843 38.2354C61.9098 38.8615 61.4557 39.3919 60.8794 39.7594C60.2465 40.1403 59.5171 40.3303 58.7788 40.3069ZM58.7788 39.6683C59.2276 39.7011 59.6777 39.6246 60.0904 39.4452C60.5032 39.2658 60.8662 38.9889 61.1483 38.6383C61.6972 37.8559 61.9713 36.9136 61.9277 35.9589C61.9776 35.0028 61.7014 34.0581 61.1445 33.2794C60.8575 32.9374 60.4934 32.6686 60.0822 32.4948C59.671 32.321 59.2244 32.2474 58.7792 32.2799C58.1567 32.2552 57.5414 32.4195 57.014 32.7511C56.5449 33.0704 56.1824 33.5232 55.9736 34.0509C55.7348 34.6582 55.6182 35.3066 55.6307 35.959C55.5835 36.9205 55.8651 37.8694 56.4291 38.6495C56.7118 38.9937 57.0723 39.2656 57.4809 39.4428C57.8895 39.6199 58.3344 39.6972 58.7788 39.6683Z" fill="white"/>
<path d="M70.8741 40.2613C70.4764 40.2656 70.0804 40.2065 69.7012 40.0864C69.3567 39.9759 69.0347 39.8048 68.7504 39.5809C68.4683 39.3559 68.2294 39.0816 68.0451 38.7714C67.8448 38.4322 67.6976 38.0644 67.6086 37.6806C67.5062 37.2408 67.4565 36.7905 67.4605 36.3389V31.9616C67.4606 31.9493 67.4632 31.9372 67.468 31.9259C67.4729 31.9146 67.4799 31.9043 67.4887 31.8957C67.4975 31.8871 67.5079 31.8804 67.5194 31.8758C67.5308 31.8713 67.543 31.869 67.5553 31.8692H68.0204C68.0327 31.869 68.0449 31.8713 68.0563 31.8758C68.0677 31.8804 68.0782 31.8871 68.087 31.8957C68.0958 31.9043 68.1028 31.9146 68.1076 31.9259C68.1125 31.9372 68.115 31.9493 68.1152 31.9616V36.2172C68.1064 36.7299 68.168 37.2414 68.2982 37.7374C68.3998 38.1283 68.5846 38.4925 68.8399 38.8054C69.0735 39.0828 69.372 39.2982 69.7088 39.4325C70.0805 39.575 70.476 39.6447 70.874 39.6377C71.3259 39.6506 71.7749 39.561 72.1872 39.3755C72.5343 39.2122 72.8355 38.9654 73.064 38.6572C73.2926 38.3418 73.4592 37.9858 73.5549 37.6082C73.6534 37.2275 73.7055 36.8363 73.7101 36.4431C73.7106 36.4189 73.7205 36.396 73.7376 36.3789C73.7547 36.3619 73.7777 36.3522 73.8019 36.3517L74.2205 36.3412C74.2331 36.3408 74.2457 36.3429 74.2575 36.3474C74.2693 36.3519 74.28 36.3588 74.2891 36.3675C74.2982 36.3763 74.3055 36.3868 74.3105 36.3984C74.3154 36.41 74.318 36.4225 74.3181 36.4351C74.3398 37.1873 74.1768 37.9333 73.8433 38.6078C73.5631 39.1465 73.1235 39.5858 72.5846 39.8658C72.0539 40.1313 71.4676 40.2669 70.8741 40.2613ZM73.8524 40.0788C73.8401 40.0789 73.8279 40.0767 73.8165 40.0721C73.8051 40.0676 73.7947 40.0608 73.7859 40.0522C73.7771 40.0436 73.7701 40.0334 73.7652 40.0221C73.7604 40.0108 73.7578 39.9987 73.7577 39.9864V38.4064H73.711V31.9618C73.7111 31.9495 73.7137 31.9374 73.7185 31.9261C73.7233 31.9147 73.7304 31.9045 73.7392 31.8959C73.748 31.8873 73.7584 31.8806 73.7698 31.876C73.7812 31.8714 73.7934 31.8692 73.8057 31.8693H74.2708C74.2831 31.8692 74.2953 31.8714 74.3067 31.876C74.3181 31.8806 74.3285 31.8873 74.3373 31.8959C74.3461 31.9045 74.3532 31.9147 74.358 31.9261C74.3628 31.9374 74.3654 31.9495 74.3655 31.9618V39.9864C74.3654 39.9987 74.3628 40.0108 74.358 40.0221C74.3531 40.0334 74.3461 40.0436 74.3373 40.0522C74.3285 40.0608 74.3181 40.0676 74.3067 40.0721C74.2953 40.0767 74.2831 40.0789 74.2708 40.0788H73.8524Z" fill="white"/>
<path d="M78.8856 32.4154V31.9618C78.8858 31.9495 78.8883 31.9374 78.8932 31.926C78.898 31.9147 78.905 31.9045 78.9138 31.8959C78.9226 31.8873 78.9331 31.8806 78.9445 31.876C78.9559 31.8714 78.9681 31.8692 78.9804 31.8693H84.0748C84.0871 31.8692 84.0993 31.8714 84.1108 31.876C84.1222 31.8805 84.1326 31.8873 84.1414 31.8959C84.1502 31.9045 84.1572 31.9147 84.1621 31.926C84.1669 31.9373 84.1695 31.9495 84.1696 31.9618V32.4154C84.1695 32.4277 84.1669 32.4399 84.1621 32.4512C84.1572 32.4625 84.1502 32.4728 84.1414 32.4814C84.1326 32.4899 84.1222 32.4967 84.1108 32.5013C84.0993 32.5058 84.0871 32.5081 84.0748 32.5079H78.9804C78.9681 32.5081 78.9559 32.5058 78.9445 32.5013C78.9331 32.4967 78.9226 32.4899 78.9138 32.4813C78.905 32.4727 78.898 32.4625 78.8932 32.4512C78.8883 32.4399 78.8858 32.4277 78.8856 32.4154ZM84.1696 40.0034C84.1694 40.025 84.1617 40.0459 84.1479 40.0625C84.1341 40.0791 84.115 40.0905 84.0938 40.0946C83.7086 40.1732 83.3151 40.2024 82.9226 40.1814C82.5397 40.166 82.1648 40.0674 81.8238 39.8926C81.5025 39.7239 81.2473 39.4522 81.099 39.1211C80.9774 38.8647 80.906 38.5874 80.8885 38.3042C80.8729 38.0281 80.8652 37.7127 80.8652 37.3579V29.6814C80.8654 29.6691 80.8679 29.6569 80.8728 29.6456C80.8776 29.6343 80.8846 29.6241 80.8934 29.6155C80.9022 29.6069 80.9127 29.6002 80.9241 29.5956C80.9355 29.5911 80.9477 29.5888 80.96 29.589H81.425C81.4373 29.5888 81.4495 29.591 81.4609 29.5956C81.4723 29.6001 81.4827 29.6069 81.4916 29.6155C81.5004 29.6241 81.5074 29.6343 81.5122 29.6456C81.5171 29.6569 81.5197 29.6691 81.5198 29.6814V37.3576C81.5198 37.7123 81.5237 37.9986 81.5315 38.2165C81.5383 38.431 81.5929 38.6414 81.6913 38.8322C81.776 39.0063 81.9005 39.1581 82.0549 39.275C82.2093 39.3919 82.3891 39.4707 82.5797 39.5049C83.0704 39.5836 83.5709 39.5778 84.0597 39.4878C84.073 39.4856 84.0867 39.4862 84.0998 39.4898C84.1129 39.4933 84.125 39.4996 84.1355 39.5082C84.1459 39.5169 84.1544 39.5277 84.1602 39.5399C84.1661 39.5521 84.1693 39.5654 84.1696 39.5789V40.0034Z" fill="white"/>
<path d="M95.3921 39.9863V31.9618C95.3922 31.9495 95.3948 31.9373 95.3996 31.926C95.4044 31.9147 95.4115 31.9045 95.4203 31.8959C95.4291 31.8873 95.4395 31.8805 95.4509 31.876C95.4623 31.8714 95.4745 31.8692 95.4868 31.8693H95.9051C95.9174 31.8692 95.9296 31.8714 95.9411 31.876C95.9525 31.8805 95.9629 31.8873 95.9717 31.8959C95.9805 31.9045 95.9875 31.9147 95.9924 31.926C95.9972 31.9373 95.9998 31.9495 95.9999 31.9618V33.5416H96.0467V39.9863C96.0466 39.9986 96.044 40.0108 96.0392 40.0221C96.0343 40.0334 96.0273 40.0436 96.0185 40.0522C96.0097 40.0608 95.9993 40.0675 95.9879 40.0721C95.9765 40.0767 95.9642 40.0789 95.952 40.0788H95.4868C95.4745 40.0789 95.4623 40.0767 95.4509 40.0721C95.4395 40.0675 95.4291 40.0608 95.4203 40.0522C95.4115 40.0436 95.4045 40.0334 95.3996 40.0221C95.3948 40.0108 95.3922 39.9986 95.3921 39.9863ZM100.491 40.0788C100.478 40.0789 100.466 40.0767 100.455 40.0721C100.443 40.0675 100.433 40.0607 100.424 40.0521C100.415 40.0435 100.408 40.0333 100.403 40.0219C100.398 40.0106 100.396 39.9984 100.396 39.9861L100.411 34.5301C100.427 34.2228 100.382 33.9154 100.278 33.6257C100.175 33.336 100.014 33.0698 99.807 32.8425C99.3805 32.4371 98.813 32.2136 98.2246 32.2193C97.6362 32.225 97.0732 32.4594 96.6546 32.873C96.2606 33.3176 96.0449 33.8921 96.0491 34.4862C96.0481 34.5013 96.0434 34.516 96.0355 34.529C96.0276 34.542 96.0167 34.5528 96.0037 34.5607C95.9907 34.5686 95.9759 34.5732 95.9608 34.5742C95.9456 34.5752 95.9304 34.5725 95.9165 34.5663L95.5283 34.4027C95.5111 34.3956 95.4965 34.3835 95.4862 34.368C95.4759 34.3525 95.4705 34.3343 95.4706 34.3157C95.472 33.8422 95.5982 33.3774 95.8363 32.968C96.0777 32.5578 96.4267 32.2214 96.8456 31.9953C97.2996 31.7533 97.808 31.6316 98.3224 31.6418C98.7828 31.6391 99.2381 31.7391 99.6551 31.9344C100.073 32.1318 100.424 32.4477 100.664 32.8428C100.939 33.3229 101.073 33.871 101.05 34.4239L101.035 39.9871C101.034 40.0119 101.024 40.0355 101.006 40.0528C100.989 40.0701 100.965 40.0796 100.94 40.0793L100.491 40.0788ZM105.478 40.0788C105.466 40.0789 105.454 40.0767 105.442 40.0721C105.431 40.0675 105.42 40.0607 105.412 40.0521C105.403 40.0435 105.396 40.0332 105.391 40.0219C105.386 40.0106 105.384 39.9984 105.383 39.9861L105.399 34.4234C105.418 34.1347 105.377 33.8452 105.277 33.5735C105.178 33.3019 105.023 33.0541 104.821 32.8464C104.62 32.6386 104.377 32.4753 104.109 32.3673C103.841 32.2592 103.552 32.2087 103.263 32.2189C102.915 32.2223 102.572 32.2973 102.254 32.4394C101.901 32.5974 101.603 32.8567 101.397 33.1844C101.157 33.5911 101.037 34.0574 101.051 34.5294C101.05 34.554 101.04 34.5774 101.022 34.5945C101.005 34.6117 100.981 34.6212 100.956 34.621H100.566C100.541 34.6213 100.518 34.6121 100.5 34.5952C100.482 34.5784 100.471 34.5553 100.47 34.5308C100.447 34.0163 100.56 33.5047 100.797 33.0475C101.029 32.6111 101.382 32.2509 101.814 32.0099C102.272 31.7587 102.788 31.6316 103.31 31.6413C104.037 31.6156 104.744 31.8778 105.278 32.3708C105.542 32.6315 105.748 32.9451 105.881 33.2911C106.015 33.637 106.074 34.0073 106.054 34.3777L106.038 39.9865C106.038 40.0113 106.028 40.0349 106.01 40.0522C105.992 40.0694 105.968 40.079 105.944 40.0786L105.478 40.0788Z" fill="white"/>
<path d="M114.611 40.2613C114.213 40.2656 113.817 40.2065 113.438 40.0864C113.093 39.9759 112.771 39.8048 112.487 39.5809C112.205 39.3559 111.966 39.0816 111.782 38.7714C111.581 38.4322 111.434 38.0644 111.345 37.6806C111.243 37.2408 111.193 36.7905 111.197 36.3389V31.9616C111.197 31.9493 111.2 31.9372 111.205 31.9259C111.209 31.9146 111.216 31.9043 111.225 31.8957C111.234 31.8871 111.244 31.8804 111.256 31.8758C111.267 31.8713 111.279 31.869 111.292 31.8692H111.757C111.769 31.869 111.781 31.8713 111.793 31.8758C111.804 31.8804 111.815 31.8871 111.823 31.8957C111.832 31.9043 111.839 31.9146 111.844 31.9259C111.849 31.9372 111.852 31.9493 111.852 31.9616V36.2172C111.843 36.7299 111.904 37.2414 112.035 37.7374C112.136 38.1283 112.321 38.4925 112.576 38.8054C112.81 39.0828 113.108 39.2982 113.445 39.4325C113.817 39.575 114.213 39.6447 114.61 39.6377C115.062 39.6506 115.511 39.561 115.924 39.3755C116.271 39.2121 116.572 38.9653 116.8 38.6572C117.029 38.3418 117.196 37.9858 117.291 37.6082C117.39 37.2275 117.442 36.8363 117.447 36.4431C117.447 36.4189 117.457 36.396 117.474 36.3789C117.491 36.3619 117.514 36.3522 117.538 36.3517L117.957 36.3412C117.97 36.3408 117.982 36.3429 117.994 36.3474C118.006 36.3519 118.017 36.3588 118.026 36.3675C118.035 36.3763 118.042 36.3868 118.047 36.3984C118.052 36.41 118.055 36.4225 118.055 36.4351C118.076 37.1873 117.913 37.9333 117.58 38.6078C117.3 39.1465 116.86 39.5858 116.321 39.8658C115.79 40.1314 115.204 40.2669 114.611 40.2613ZM117.589 40.0788C117.577 40.079 117.564 40.0767 117.553 40.0722C117.542 40.0676 117.531 40.0608 117.522 40.0523C117.514 40.0437 117.506 40.0334 117.502 40.0221C117.497 40.0108 117.494 39.9987 117.494 39.9864V38.4064H117.447V31.9618C117.448 31.9495 117.45 31.9374 117.455 31.9261C117.46 31.9147 117.467 31.9045 117.476 31.8959C117.484 31.8873 117.495 31.8806 117.506 31.876C117.518 31.8714 117.53 31.8692 117.542 31.8693H118.007C118.019 31.8692 118.032 31.8714 118.043 31.876C118.055 31.8806 118.065 31.8873 118.074 31.8959C118.083 31.9045 118.09 31.9147 118.094 31.9261C118.099 31.9374 118.102 31.9495 118.102 31.9618V39.9864C118.102 39.9987 118.099 40.0108 118.094 40.0221C118.09 40.0334 118.083 40.0436 118.074 40.0522C118.065 40.0608 118.055 40.0676 118.043 40.0721C118.032 40.0767 118.019 40.0789 118.007 40.0788H117.589Z" fill="white"/>
<path d="M126.628 40.2916C125.799 40.3227 124.978 40.1213 124.258 39.7102C123.976 39.5467 123.73 39.3288 123.533 39.069C123.336 38.8092 123.193 38.5128 123.112 38.1971C123.109 38.1847 123.109 38.172 123.111 38.1595C123.113 38.147 123.118 38.1352 123.125 38.1246C123.132 38.1141 123.141 38.1051 123.152 38.0983C123.163 38.0915 123.175 38.0869 123.187 38.0848L123.676 37.9962C123.698 37.9921 123.722 37.9964 123.742 38.0083C123.762 38.0202 123.776 38.0389 123.784 38.061C123.949 38.5475 124.293 38.9534 124.745 39.1972C125.326 39.517 125.981 39.6746 126.643 39.6533C127.285 39.687 127.921 39.5195 128.463 39.1743C128.676 39.0324 128.85 38.8387 128.968 38.6114C129.086 38.3841 129.144 38.1305 129.137 37.8745C129.148 37.6148 129.077 37.3582 128.934 37.141C128.723 36.8985 128.45 36.7184 128.143 36.6203C127.576 36.4079 126.997 36.2278 126.409 36.0806C125.772 35.9228 125.148 35.7156 124.543 35.4611C124.178 35.3201 123.856 35.087 123.608 34.7845C123.422 34.5131 123.328 34.1896 123.339 33.8611C123.333 33.4415 123.474 33.033 123.736 32.7056C124.027 32.3524 124.406 32.0823 124.835 31.9227C125.352 31.7263 125.903 31.6308 126.456 31.6414C127.028 31.6329 127.595 31.7348 128.128 31.9417C128.59 32.1182 129.002 32.4052 129.328 32.7778C129.608 33.1023 129.788 33.5016 129.844 33.9267C129.847 33.9504 129.84 33.9742 129.826 33.9932C129.811 34.0123 129.79 34.025 129.767 34.0289L129.276 34.1178C129.252 34.1223 129.227 34.1171 129.206 34.1034C129.186 34.0896 129.172 34.0684 129.166 34.0442C129.112 33.7846 129.006 33.5387 128.854 33.3211C128.702 33.1035 128.508 32.9187 128.284 32.7778C127.722 32.4293 127.07 32.256 126.409 32.28C125.808 32.2445 125.209 32.39 124.691 32.6978C124.49 32.8107 124.322 32.975 124.205 33.174C124.088 33.373 124.025 33.5995 124.025 33.8303C124.019 34.0718 124.099 34.3076 124.251 34.4955C124.468 34.7252 124.738 34.8986 125.038 35.001C125.546 35.1942 126.067 35.3517 126.597 35.4723C127.27 35.625 127.928 35.8361 128.564 36.1032C128.957 36.2557 129.299 36.5134 129.554 36.8481C129.753 37.1639 129.852 37.532 129.839 37.9047C129.852 38.2449 129.78 38.583 129.631 38.8887C129.481 39.1945 129.258 39.4584 128.981 39.6569C128.285 40.1158 127.46 40.3384 126.628 40.2916Z" fill="white"/>
<path d="M134.998 30.0135V29.2254C134.998 29.2131 135.001 29.2009 135.005 29.1896C135.01 29.1783 135.017 29.168 135.026 29.1595C135.035 29.1509 135.045 29.1441 135.057 29.1395C135.068 29.135 135.08 29.1327 135.093 29.1329H135.558C135.57 29.1327 135.582 29.135 135.594 29.1395C135.605 29.1441 135.616 29.1509 135.624 29.1595C135.633 29.168 135.64 29.1783 135.645 29.1896C135.65 29.2009 135.652 29.2131 135.653 29.2254V30.0135C135.652 30.0258 135.65 30.0379 135.645 30.0492C135.64 30.0605 135.633 30.0708 135.624 30.0793C135.616 30.0879 135.605 30.0947 135.594 30.0993C135.582 30.1038 135.57 30.1061 135.558 30.1059H135.093C135.08 30.1061 135.068 30.1038 135.057 30.0993C135.045 30.0947 135.035 30.0879 135.026 30.0793C135.017 30.0708 135.01 30.0605 135.005 30.0492C135.001 30.0379 134.998 30.0258 134.998 30.0135ZM134.998 39.9865V31.9619C134.998 31.9496 135.001 31.9374 135.005 31.9261C135.01 31.9148 135.017 31.9045 135.026 31.896C135.035 31.8874 135.045 31.8806 135.057 31.876C135.068 31.8715 135.08 31.8692 135.093 31.8694H135.558C135.57 31.8692 135.582 31.8715 135.594 31.876C135.605 31.8806 135.616 31.8874 135.624 31.896C135.633 31.9045 135.64 31.9148 135.645 31.9261C135.65 31.9374 135.652 31.9496 135.653 31.9619V39.9864C135.652 39.9987 135.65 40.0109 135.645 40.0222C135.64 40.0335 135.633 40.0437 135.624 40.0523C135.616 40.0608 135.605 40.0676 135.594 40.0722C135.582 40.0767 135.57 40.079 135.558 40.0788H135.093C135.08 40.079 135.068 40.0767 135.057 40.0722C135.045 40.0676 135.035 40.0608 135.026 40.0523C135.017 40.0437 135.01 40.0335 135.005 40.0222C135.001 40.0109 134.998 39.9988 134.998 39.9865Z" fill="white"/>
<path d="M144.646 40.3069C143.906 40.3328 143.175 40.1426 142.542 39.7595C141.972 39.3902 141.524 38.8598 141.256 38.2355C140.952 37.5156 140.796 36.7419 140.796 35.9604C140.797 35.1789 140.955 34.4055 141.26 33.6861C141.529 33.0655 141.979 32.5399 142.55 32.1771C143.183 31.802 143.911 31.616 144.646 31.6412C145.378 31.6287 146.099 31.8167 146.731 32.1848C147.292 32.5064 147.735 33.0004 147.993 33.5934C147.998 33.6047 148 33.6168 148 33.629C148 33.6412 147.998 33.6533 147.993 33.6645C147.988 33.6758 147.981 33.686 147.972 33.6945C147.964 33.703 147.953 33.7097 147.942 33.7142L147.49 33.9017C147.467 33.911 147.442 33.9113 147.419 33.9026C147.396 33.8938 147.378 33.8767 147.367 33.8547C147.143 33.378 146.78 32.9801 146.326 32.713C145.816 32.4179 145.235 32.2681 144.646 32.2798C144.028 32.2555 143.417 32.4185 142.893 32.7475C142.424 33.0666 142.063 33.5196 141.856 34.0473C141.616 34.6612 141.495 35.315 141.498 35.9741C141.465 36.9334 141.75 37.8768 142.308 38.6573C142.589 39 142.948 39.2705 143.355 39.4463C143.762 39.6222 144.204 39.6983 144.647 39.6683C145.222 39.6794 145.79 39.5351 146.291 39.2505C146.749 38.9818 147.117 38.5841 147.35 38.1072C147.361 38.0856 147.38 38.0689 147.403 38.0606C147.426 38.0523 147.451 38.053 147.473 38.0625L147.935 38.2601C147.947 38.2651 147.958 38.2725 147.966 38.2818C147.975 38.2912 147.982 38.3023 147.986 38.3144C147.991 38.3266 147.992 38.3395 147.991 38.3524C147.99 38.3652 147.987 38.3777 147.981 38.3891C147.671 38.9697 147.212 39.4563 146.649 39.7979C146.04 40.147 145.348 40.323 144.646 40.3069Z" fill="white"/>
</svg>
