<svg width="32" height="32" viewBox="0 0 32 32" fill="none" xmlns="http://www.w3.org/2000/svg">
<circle cx="16" cy="16" r="12" fill="#1ED760"/>
<path d="M22.4124 14.7096C18.7899 12.5448 12.8145 12.3458 9.35632 13.402C8.80101 13.5715 8.21376 13.2561 8.04548 12.6973C7.87719 12.1382 8.19041 11.5477 8.74612 11.3778C12.7158 10.1652 19.315 10.3995 23.4853 12.8905C23.9848 13.1888 24.1487 13.8379 23.8526 14.3397C23.5563 14.8423 22.9107 15.008 22.4124 14.7096ZM22.2938 17.9159C22.0396 18.3309 21.5004 18.461 21.0886 18.2062C18.0684 16.3383 13.4632 15.7972 9.89016 16.8884C9.42678 17.0294 8.93736 16.7665 8.79672 16.3011C8.65702 15.8349 8.91844 15.3433 9.38088 15.2015C13.4626 13.9553 18.5368 14.5589 22.0055 16.7038C22.4174 16.959 22.547 17.502 22.2938 17.9159ZM20.9187 20.9951C20.7167 21.3284 20.2855 21.4328 19.9555 21.2297C17.3164 19.6067 13.9947 19.2402 10.0829 20.1393C9.70591 20.2262 9.33029 19.9886 9.24427 19.6093C9.15798 19.2301 9.39323 18.852 9.77113 18.7654C14.0519 17.7807 17.7241 18.2045 20.6862 20.0259C21.0165 20.2288 21.1205 20.663 20.9187 20.9951Z" fill="white"/>
</svg>
