<svg width="32" height="32" viewBox="0 0 32 32" fill="none" xmlns="http://www.w3.org/2000/svg">
<path d="M9.70897 19.1605C9.83919 18.0822 10.2814 17.4785 11.1148 16.8597C12.3072 16.0215 13.7966 16.4956 13.7966 16.4956V13.683C14.1587 13.6737 14.521 13.6952 14.8791 13.7471V17.3667C14.8791 17.3667 13.3901 16.8926 12.1977 17.7312C11.3648 18.3496 10.9217 18.9537 10.7919 20.032C10.7879 20.6175 10.8977 21.3828 11.4037 22.0446C11.2786 21.9805 11.1511 21.9074 11.0212 21.8253C9.90657 21.0769 9.70354 19.954 9.70897 19.1605ZM21.0291 8.48242C20.2089 7.58359 19.8987 6.67609 19.7866 6.03859H20.8184C20.8184 6.03859 20.6127 7.71014 22.1121 9.35395L22.1329 9.37605C21.7288 9.12185 21.3582 8.8218 21.0291 8.48242ZM25.9999 11.0307V14.5775C25.9999 14.5775 24.6832 14.5259 23.7087 14.278C22.3481 13.9313 21.4736 13.3995 21.4736 13.3995C21.4736 13.3995 20.8695 13.0203 20.8207 12.9939V20.318C20.8207 20.7258 20.709 21.7443 20.3685 22.5937C19.924 23.7049 19.2381 24.4343 19.1119 24.5834C19.1119 24.5834 18.2777 25.5693 16.8058 26.2332C15.4792 26.8322 14.3144 26.817 13.9662 26.8322C13.9662 26.8322 11.9527 26.9119 10.1408 25.7344C9.74899 25.4749 9.38326 25.1809 9.04834 24.8564L9.05738 24.8629C10.8697 26.0404 12.8828 25.9606 12.8828 25.9606C13.2314 25.9455 14.3962 25.9606 15.7224 25.3617C17.1929 24.6978 18.0285 23.7118 18.0285 23.7118C18.1533 23.5627 18.8424 22.8334 19.2851 21.7217C19.6247 20.8728 19.7373 19.8539 19.7373 19.4461V12.1228C19.7861 12.1497 20.3898 12.5289 20.3898 12.5289C20.3898 12.5289 21.2647 13.0611 22.6253 13.4074C23.6002 13.6552 24.9165 13.7068 24.9165 13.7068V10.9275C25.3668 11.0285 25.7507 11.0558 25.9999 11.0307Z" fill="#FD355A"/>
<path d="M24.9172 10.9275V13.7059C24.9172 13.7059 23.6009 13.6544 22.6261 13.4065C21.2655 13.0598 20.3905 12.528 20.3905 12.528C20.3905 12.528 19.7869 12.1488 19.738 12.1219V19.4469C19.738 19.8547 19.6263 20.8736 19.2858 21.7226C18.8414 22.8342 18.1554 23.5636 18.0293 23.7127C18.0293 23.7127 17.1945 24.6986 15.7232 25.3626C14.3969 25.9615 13.2321 25.9463 12.8835 25.9615C12.8835 25.9615 10.8704 26.0412 9.05813 24.8637L9.04909 24.8573C8.85775 24.672 8.67764 24.4763 8.50964 24.2713C7.93131 23.5662 7.57681 22.7324 7.48773 22.4945C7.48758 22.4935 7.48758 22.4924 7.48773 22.4914C7.34439 22.078 7.04324 21.0851 7.08439 20.1234C7.15719 18.4268 7.75406 17.3853 7.91187 17.1244C8.32982 16.413 8.8734 15.7765 9.51844 15.2431C10.0877 14.783 10.7328 14.4168 11.4275 14.1597C12.1785 13.8578 12.9827 13.696 13.7969 13.683V16.4956C13.7969 16.4956 12.3075 16.0232 11.1155 16.8597C10.2822 17.4785 9.83994 18.0822 9.70971 19.1605C9.70429 19.954 9.90731 21.0769 11.021 21.8258C11.1509 21.9081 11.2785 21.9812 11.4036 22.045C11.5981 22.298 11.8349 22.5183 12.1044 22.6973C13.1924 23.3859 14.1039 23.434 15.2696 22.9868C16.0469 22.6877 16.632 22.0138 16.9033 21.2671C17.0738 20.8008 17.0716 20.3315 17.0716 19.8461V6.03859H19.7846C19.8967 6.67609 20.2069 7.58359 21.0272 8.48242C21.3562 8.8218 21.7268 9.12185 22.1309 9.37605C22.2503 9.49956 22.8607 10.1102 23.6444 10.4851C24.0495 10.6788 24.4766 10.8273 24.9172 10.9275Z" fill="black"/>
<path d="M6.40771 21.6308V21.633L6.47503 21.8154C6.4673 21.7942 6.44228 21.7296 6.40771 21.6308Z" fill="#33F3ED"/>
<path d="M11.4273 14.1597C10.7327 14.4168 10.0875 14.783 9.51827 15.2432C8.87302 15.7777 8.32957 16.4156 7.91215 17.1284C7.75434 17.3884 7.15747 18.4307 7.08467 20.1274C7.04352 21.0891 7.34467 22.0819 7.48801 22.4954C7.48786 22.4964 7.48786 22.4974 7.48801 22.4984C7.57845 22.7342 7.93159 23.568 8.50992 24.2753C8.67792 24.4803 8.85803 24.6759 9.04937 24.8612C8.43631 24.4548 7.88955 23.9635 7.42697 23.4033C6.85361 22.7043 6.50001 21.8791 6.40777 21.6355C6.40766 21.6338 6.40766 21.6321 6.40777 21.6303V21.6273C6.26398 21.2143 5.96193 20.221 6.00398 19.258C6.07678 17.5613 6.67365 16.5199 6.83145 16.259C7.24875 15.5461 7.79222 14.9082 8.43758 14.3738C9.00667 13.9135 9.65188 13.5473 10.3467 13.2904C10.78 13.118 11.2315 12.9909 11.6932 12.9112C12.3891 12.7947 13.0998 12.7847 13.799 12.8813V13.683C12.984 13.6958 12.179 13.8576 11.4273 14.1597Z" fill="#33F3ED"/>
<path d="M19.7867 6.03863H17.0736V19.8466C17.0736 20.3319 17.0736 20.8 16.9054 21.2676C16.6314 22.0139 16.0485 22.6878 15.2717 22.9868C14.1055 23.4358 13.194 23.386 12.1065 22.6973C11.8365 22.5192 11.5991 22.2995 11.4038 22.0473C12.3303 22.5209 13.1596 22.5127 14.1869 22.1175C14.9633 21.8184 15.5471 21.1445 15.8202 20.3978C15.9911 19.9315 15.9889 19.4621 15.9889 18.9772V5.16667H19.7351C19.7351 5.16667 19.6931 5.50991 19.7867 6.03863ZM24.917 10.1592V10.9276C24.4772 10.8272 24.0509 10.6787 23.6464 10.4851C22.8628 10.1102 22.2524 9.4996 22.133 9.37609C22.2715 9.46326 22.4152 9.54256 22.5635 9.61358C23.5162 10.0695 24.4544 10.2056 24.917 10.1592Z" fill="#33F3ED"/>
</svg>
