<svg width="32" height="32" viewBox="0 0 32 32" fill="none" xmlns="http://www.w3.org/2000/svg">
<path opacity="0.1" fill-rule="evenodd" clip-rule="evenodd" d="M0 16C0 7.16344 7.16344 0 16 0C24.8366 0 32 7.16344 32 16C32 24.8366 24.8366 32 16 32C7.16344 32 0 24.8366 0 16Z" fill="white"/>
<path d="M13.9901 21.2589C15.3251 21.2589 16.4073 20.3032 16.4073 18.8417V8H19.3062C19.1436 9.97723 21.1092 11.8872 23.2768 11.8435V14.5695C21.423 14.5695 19.8467 13.7856 19.298 13.3506V18.8417C19.298 21.2589 17.3964 24 13.9901 24C10.5837 24 8.72363 21.2589 8.72363 18.8417C8.72363 15.43 12.3341 13.4514 14.7253 13.935V16.7115C14.605 16.669 14.2948 16.6061 14.0306 16.6061C12.6845 16.5564 11.5728 17.6482 11.5728 18.8417C11.5728 20.1767 12.6551 21.2589 13.9901 21.2589Z" fill="white"/>
</svg>
